<?xml version="1.0" encoding="utf-8"?>
<!-- Generator: Adobe Illustrator 24.2.3, SVG Export Plug-In . SVG Version: 6.00 Build 0)  -->
<svg version="1.1" id="Layer_1" xmlns="http://www.w3.org/2000/svg" xmlns:xlink="http://www.w3.org/1999/xlink" x="0px" y="0px"
	 viewBox="0 0 263.4 334" style="enable-background:new 0 0 263.4 334;" xml:space="preserve">
<g>
	<g>
		<path d="M76.5,112.3c2,2,3.3,5.2,2.7,7.8L70,163.4c-2.7,11.8,9.8,20.4,20.4,14.4l38.5-21.5c2.7-1.3,5.8-1.3,8.5,0l38.5,21.5
			c10.5,5.8,22.2-3.3,20.4-14.4l-9.2-43.2c-0.7-2.7,0.7-5.8,2.7-7.8l32.7-30c8.5-7.8,4-22.2-7.8-23.5l-43.9-5.2
			c-3.3-0.7-5.8-2-6.5-5.2L145.9,7.9c-4.5-10.5-20.4-10.5-24.9,0l-18.4,40.6c-1.3,2.7-4,4.5-6.5,5.2l-43.9,5.2
			C40.5,60.1,36,74.5,44.5,82.3L76.5,112.3z"/>
	</g>
</g>
<g>
	<path d="M121,285.8l-21.3-1.7l-7.8-19.6c-1.7-3.9-6.7-3.9-8.4,0l-7.8,19.6l-21.3,1.7c-3.9,0.6-5.6,5-2.8,7.8l16.2,14l-5,20.7
		c-1.1,3.9,3.4,6.7,6.7,5l17.9-11.2l17.9,11.2c3.4,2.2,7.8-1.1,6.7-5l-5-20.7l16.2-14C126.6,291.4,124.9,286.3,121,285.8L121,285.8z
		 M216.7,285.8l-21.3-1.7l-7.8-19.6c-1.7-3.9-6.7-3.9-8.4,0l-7.8,19.6l-21.8,1.7c-3.9,0.6-5.6,5-2.8,7.8l16.2,14l-5,20.7
		c-1.1,3.9,3.4,6.7,6.7,5l17.9-11.2l17.9,11.2c3.4,2.2,7.8-1.1,6.7-5l-5-20.7l16.2-14C222.3,291.4,220.6,286.3,216.7,285.8
		L216.7,285.8z"/>
</g>
</svg>
