<?xml version="1.0" encoding="utf-8"?>
<!-- Generator: Adobe Illustrator 22.0.0, SVG Export Plug-In . SVG Version: 6.00 Build 0)  -->
<svg version="1.1" id="Layer_1" xmlns="http://www.w3.org/2000/svg" xmlns:xlink="http://www.w3.org/1999/xlink" x="0px" y="0px"
	 viewBox="0 0 17.3 17.3" style="enable-background:new 0 0 17.3 17.3;" xml:space="preserve">
<style type="text/css">
	.st0{fill:#FFFFFF;}
</style>
<path class="st0" d="M8.7,17.3C3.9,17.3,0,13.4,0,8.6C0,3.9,3.9,0,8.6,0c4.8,0,8.7,3.9,8.7,8.7C17.3,13.4,13.4,17.3,8.7,17.3
	 M11.2,2.5H9.7c0-0.5,0-1,0-1.5c0-0.1,0-0.2-0.2-0.2c-0.8-0.1-1.7,0-2.5,0.1C6.9,0.9,6.8,1,6.8,1.2c0,1.5,0,3.1,0,4.6
	c0,0.2,0,0.2-0.2,0.3C6.1,6.5,5.4,6.9,4.8,7.3c-0.1,0-0.1,0.1-0.1,0.2c0,0.3,0,0.5,0,0.8h3.6v7.2c-0.4,0-0.7,0-1.1,0
	c-0.1,0-0.1-0.1-0.2-0.1c-1.2-1.2-2.4-2.4-3.6-3.6c-0.1-0.1-0.1-0.2-0.1-0.3c0-0.3,0-0.7,0-1c-0.1,0-0.1,0-0.2,0
	c-0.2,0-0.4-0.1-0.6-0.2C2,9.6,1.4,9,0.9,8.5c0-0.1-0.1-0.1-0.2-0.2c-0.2,2.8,1.4,6.2,4.9,7.7c3.3,1.4,6.9,0.3,8.8-1.9
	c-0.1-0.1-0.2-0.1-0.3-0.2c-0.4-0.4-0.9-0.9-1.3-1.3c-0.1-0.1-0.2-0.3-0.2-0.5c0-0.6,0-1.1,0-1.7c-0.4,0-0.7,0-1.1,0
	c-0.1,0-0.2-0.1-0.3-0.1c-0.5-0.7-1-1.4-1.4-2.2c0,0-0.1-0.1-0.1-0.2c0-0.4,0-0.7,0-1.1h2.2h2.2c0-0.4,0-0.8,0-1.1
	c0-0.4-0.1-0.7-0.4-1c-0.1-0.1-0.2-0.1-0.3-0.1v1.5c-0.4,0-0.8,0.1-1.2,0c-0.2-0.1-0.4-0.4-0.6-0.6c0,0,0,0,0,0
	c-0.1,0-0.2-0.1-0.3-0.1v0.8H9V3.2h2.1V2.5z M4,9.7c0,0.5,0,1,0,1.5c0,0.1,0,0.2,0.1,0.3c1.1,1.1,2.1,2.1,3.2,3.2
	c0.1,0.1,0.2,0.1,0.3,0.1V9H4c0-0.6,0-1.2,0-1.8C4,7.1,4,7,4.1,6.9c0.6-0.4,1.2-0.8,1.8-1.2c0.1-0.1,0.2-0.2,0.2-0.3
	c0-1.3,0-2.7,0-4V1.1C5.7,1.3,5.3,1.4,5,1.6c-2.2,1.2-3.6,3-4.1,5.5c0,0.2,0,0.3,0.1,0.4C1.5,8,2,8.6,2.5,9.2
	c0.3,0.4,0.7,0.7,1.3,0.6C3.8,9.7,3.9,9.7,4,9.7 M14.8,7.6h-4.4c0.1,0.2,0.1,0.3,0.2,0.4c0.3,0.5,0.7,1,1,1.5
	c0.1,0.2,0.2,0.2,0.4,0.2c0.4,0,0.9,0,1.4,0c0,0.7,0,1.5,0,2.2c0,0.1,0.1,0.2,0.1,0.3c0.3,0.3,0.6,0.6,0.9,0.9
	c0.1,0.1,0.5,0.2,0.6,0.2c0.2-0.1,0.2-0.3,0.2-0.5c0-0.9,0-1.7,0-2.6V9.9h1.2c0.7-4.6-2.6-8.3-6-9v0.9h1.4V4H9.7v0.7v0.7h0.7V4.7
	c0.7-0.1,1.4-0.1,1.8,0.6c0,0,0,0,0,0c0.1,0,0.2,0.1,0.3,0.1V4c0.7-0.1,1.4-0.1,1.8,0.6c0.1,0.1,0.2,0.2,0.2,0.3
	c0,0.1,0.1,0.1,0.1,0.2C14.8,5.8,14.8,6.7,14.8,7.6 M16,10.6v1c0,0,0,0,0.1,0c0.1-0.3,0.2-0.6,0.3-1H16z"/>
</svg>
