<?xml version="1.0" encoding="UTF-8" standalone="no"?>
<!-- Created with Inkscape (http://www.inkscape.org/) -->

<svg
   xmlns:dc="http://purl.org/dc/elements/1.1/"
   xmlns:cc="http://creativecommons.org/ns#"
   xmlns:rdf="http://www.w3.org/1999/02/22-rdf-syntax-ns#"
   xmlns:svg="http://www.w3.org/2000/svg"
   xmlns="http://www.w3.org/2000/svg"
   xmlns:sodipodi="http://sodipodi.sourceforge.net/DTD/sodipodi-0.dtd"
   xmlns:inkscape="http://www.inkscape.org/namespaces/inkscape"
   width="116.47629mm"
   height="116.47643mm"
   viewBox="0 0 116.47629 116.47643"
   version="1.1"
   id="svg4620"
   inkscape:version="0.92.5 (2060ec1f9f, 2020-04-08)"
   sodipodi:docname="pricing.svg">
  <defs
     id="defs4614" />
  <sodipodi:namedview
     id="base"
     pagecolor="#ffffff"
     bordercolor="#666666"
     borderopacity="1.0"
     inkscape:pageopacity="0.0"
     inkscape:pageshadow="2"
     inkscape:zoom="0.35"
     inkscape:cx="34.398395"
     inkscape:cy="177.25578"
     inkscape:document-units="mm"
     inkscape:current-layer="g24"
     showgrid="false"
     fit-margin-top="0"
     fit-margin-left="0"
     fit-margin-right="0"
     fit-margin-bottom="0"
     inkscape:window-width="1920"
     inkscape:window-height="960"
     inkscape:window-x="0"
     inkscape:window-y="27"
     inkscape:window-maximized="1" />
  <metadata
     id="metadata4617">
    <rdf:RDF>
      <cc:Work
         rdf:about="">
        <dc:format>image/svg+xml</dc:format>
        <dc:type
           rdf:resource="http://purl.org/dc/dcmitype/StillImage" />
        <dc:title></dc:title>
      </cc:Work>
    </rdf:RDF>
  </metadata>
  <g
     inkscape:label="Layer 1"
     inkscape:groupmode="layer"
     id="layer1"
     transform="translate(-96.732091,-79.255836)">
    <g
       id="g24"
       transform="matrix(0.35277777,0,0,-0.35277777,155.14786,88.173824)">
      <path
         d="m 0,0 c -77.205,0.148 -140.163,-62.349 -140.31,-139.282 -0.147,-77.205 62.348,-140.168 139.289,-140.329 77.17,-0.162 140.16,62.371 140.323,139.307 C 139.466,-63.117 76.945,-0.147 0,0 m 164.581,-139.715 c -0.023,-91.122 -73.926,-165.099 -165.01,-165.175 -91.014,-0.075 -165.13,73.973 -165.159,165.012 -0.031,91.419 74.174,165.339 165.791,165.157 90.532,-0.18 164.402,-74.327 164.378,-164.994"
         style="fill:#ffffff;fill-opacity:1;fill-rule:nonzero;stroke:none"
         id="path26"
         inkscape:connector-curvature="0" />
    </g>
    <g
       id="g28"
       transform="matrix(0.35277777,0,0,-0.35277777,154.62526,167.8284)"
       style="fill:#ffffff">
      <path
         d="m 0,0 c -7.951,-0.076 -13.199,5.22 -12.726,14.717 0.378,7.591 -1.759,11.413 -9.529,12.911 -4.476,0.864 -8.745,3.674 -12.69,6.247 -7.239,4.719 -9.035,11.359 -5.344,17.63 3.828,6.5 10.732,7.157 18.727,3.976 7.623,-3.033 15.958,-4.374 24.071,-6.002 2.127,-0.428 4.658,0.639 6.892,1.362 5.501,1.781 8.87,5.231 9.28,11.422 0.433,6.549 -3.252,9.654 -8.642,11.62 -9.903,3.613 -20.193,6.401 -29.663,10.914 -15.828,7.544 -23.365,24.316 -16.949,39.644 3.059,7.31 9.251,14.167 15.718,18.929 5.463,4.022 9.218,7.133 7.997,14.203 -0.257,1.49 0.13,3.173 0.533,4.684 1.824,6.86 6.377,10.238 13.436,9.584 6.724,-0.622 11.242,-4.73 10.865,-11.321 -0.452,-7.883 2.404,-11.311 9.947,-12.718 3.987,-0.744 7.797,-3.208 11.333,-5.452 7.049,-4.474 8.947,-11.363 5.293,-17.616 -3.6,-6.161 -10.521,-7.417 -18.005,-4.132 -5.206,2.284 -10.781,4.284 -16.366,4.948 -3.593,0.428 -7.985,-1.046 -11.123,-3.061 -2.754,-1.768 -5.937,-5.533 -5.844,-8.314 0.09,-2.706 3.593,-6.464 6.478,-7.694 8.953,-3.818 18.462,-6.309 27.494,-9.963 C 31.084,92.511 38.804,85.94 42.229,75.287 48.348,56.252 39.874,36.17 21.319,28.683 13.895,25.687 11.581,21.992 12.092,14.295 12.696,5.184 7.692,0.074 0,0"
         style="fill:#ffffff;fill-opacity:1;fill-rule:nonzero;stroke:none"
         id="path30"
         inkscape:connector-curvature="0" />
    </g>
  </g>
</svg>
