<?xml version="1.0" encoding="utf-8"?>
<!-- Generator: Adobe Illustrator 22.0.0, SVG Export Plug-In . SVG Version: 6.00 Build 0)  -->
<svg version="1.1" id="Layer_1" xmlns="http://www.w3.org/2000/svg" xmlns:xlink="http://www.w3.org/1999/xlink" x="0px" y="0px"
	 viewBox="0 0 8.7 9.7" style="enable-background:new 0 0 8.7 9.7;" xml:space="preserve">
<style type="text/css">
	.st0{fill:#007090;}
</style>
<path class="st0" d="M5.4,9.2H4.7H0.8C0.3,9.2,0,8.9,0,8.4c0-2.5,0-5,0-7.5C0,0.3,0.3,0,0.8,0c2,0,4,0,6,0c0.5,0,0.8,0.3,0.8,0.8
	c0,1,0,2.1,0,3.1c0,0.1,0,0.1,0.1,0.2C8.7,4.7,9,6,8.3,6.9C8.2,7,8.2,7.1,8.2,7.2c0,0.7,0,1.4,0,2.2c0,0.3-0.2,0.4-0.4,0.3
	C7.5,9.5,7.2,9.4,6.9,9.3c-0.1,0-0.1,0-0.2,0C6.4,9.4,6.1,9.5,5.8,9.7c-0.2,0.1-0.4,0-0.4-0.3V9.2z M7.2,3.9V3.7c0-1,0-1.9,0-2.9
	c0-0.3-0.1-0.3-0.3-0.3c-2,0-4,0-6,0c-0.2,0-0.3,0.1-0.3,0.3c0,2.5,0,5,0,7.5c0,0.3,0.1,0.3,0.3,0.3c1.5,0,2.9,0,4.4,0h0.1V7.4H5.2
	c-0.5,0-1,0-1.6,0c-0.6,0-1.2,0-1.9,0c-0.2,0-0.3-0.1-0.3-0.2c0-0.1,0.1-0.2,0.3-0.3c0,0,0.1,0,0.1,0c1.1,0,2.1,0,3.2,0
	c0,0,0.1,0,0.1,0C5,6.6,4.9,6.3,4.9,6c0-0.1-0.1-0.1-0.2-0.1c-0.3,0-0.7,0-1,0c-0.6,0-1.3,0-1.9,0c-0.2,0-0.3-0.1-0.3-0.3
	c0-0.1,0.1-0.2,0.3-0.2c0,0,0.1,0,0.1,0c1,0,1.9,0,2.9,0c0.1,0,0.1,0,0.1-0.1C5,5,5.1,4.7,5.3,4.5c0,0,0.1-0.1,0.1-0.1
	c-0.1,0-0.1,0-0.1,0c-0.5,0-1,0-1.5,0c-0.7,0-1.4,0-2,0c-0.2,0-0.3-0.1-0.3-0.2c0-0.1,0.1-0.3,0.3-0.3c0,0,0.1,0,0.1,0
	c1.6,0,3.2,0,4.8,0C6.9,3.8,7,3.8,7.2,3.9 M8.2,5.8c0-0.8-0.6-1.4-1.4-1.4C6,4.3,5.4,5,5.4,5.7c0,0.8,0.6,1.4,1.4,1.4
	C7.5,7.2,8.2,6.5,8.2,5.8 M7.7,7.4c-0.6,0.3-1.2,0.3-1.8,0v1.6C6.1,9,6.3,8.9,6.5,8.8c0.2-0.1,0.3-0.1,0.5,0C7.2,8.9,7.4,9,7.7,9.1
	V7.4z"/>
<path class="st0" d="M2.7,2.3c-0.3,0-0.6,0-0.8,0C1.7,2.3,1.5,2.2,1.5,2c0-0.1,0.1-0.2,0.3-0.2c0.6,0,1.1,0,1.7,0
	c0.2,0,0.3,0.1,0.3,0.2c0,0.2-0.1,0.3-0.3,0.3C3.2,2.3,3,2.3,2.7,2.3"/>
</svg>
