<?xml version="1.0" encoding="utf-8"?>
<!-- Generator: Adobe Illustrator 22.0.0, SVG Export Plug-In . SVG Version: 6.00 Build 0)  -->
<svg version="1.1" id="Layer_1" xmlns="http://www.w3.org/2000/svg" xmlns:xlink="http://www.w3.org/1999/xlink" x="0px" y="0px"
	 viewBox="0 0 8.7 10.3" style="enable-background:new 0 0 8.7 10.3;" xml:space="preserve">
<style type="text/css">
	.st0{fill:#007090;}
</style>
<path class="st0" d="M8.7,8.5c0-0.2,0-0.3,0-0.5C8.5,6.6,7.3,5.6,5.9,5.6c-0.9,0-1.9,0-3.1,0c-0.2,0-0.4,0-0.6,0.1
	C1,5.9,0.1,6.9,0,8.1c0,0.3,0,0.7,0,1c0,0.1,0,0.2,0,0.3c0,0.3,0.1,0.5,0.2,0.7c0.2,0.2,0.4,0.2,0.7,0.2l4.3,0h0.9
	c0.6,0,1.2,0,1.7,0c0.5,0,0.8-0.3,0.8-0.8C8.7,9.2,8.7,8.9,8.7,8.5L8.7,8.5z M0.5,9.5c0-0.1,0-0.2,0-0.3c0-0.3,0-0.7,0-1
	c0-0.5,0.2-1,0.7-1.4c0.4-0.4,0.9-0.6,1.5-0.6c1,0,2.1,0,3.2,0C7,6.1,8,6.9,8.1,8c0,0.2,0,0.4,0,0.5c0,0.1,0,0.1,0,0.2
	c0,0.2,0,0.4,0,0.6v0.2c0,0.2-0.1,0.3-0.3,0.3H5.5H4.3H3.2H0.9c-0.1,0-0.2,0-0.3-0.1C0.6,9.7,0.5,9.6,0.5,9.5"/>
<path class="st0" d="M4.3,5.3L4.3,5.3C5,5.3,5.7,5,6.2,4.5C6.7,4,7,3.4,7,2.6C7,1.2,5.8,0,4.3,0h0C3.6,0,3,0.3,2.5,0.8
	C2,1.3,1.7,1.9,1.7,2.6C1.7,3.4,2,4,2.5,4.5C3,5,3.6,5.3,4.3,5.3 M4.3,0.5L4.3,0.5c0.6,0,1.1,0.2,1.5,0.6c0.4,0.4,0.6,0.9,0.6,1.5v0
	c0,0.6-0.2,1.1-0.6,1.5C5.4,4.5,4.9,4.8,4.4,4.8h0c-1.2,0-2.1-0.9-2.1-2.1c0-0.6,0.2-1.1,0.6-1.5C3.2,0.8,3.8,0.5,4.3,0.5"/>
</svg>
