<?xml version="1.0" encoding="utf-8"?>
<!-- Generator: Adobe Illustrator 22.0.0, SVG Export Plug-In . SVG Version: 6.00 Build 0)  -->
<svg version="1.1" id="Layer_1" xmlns="http://www.w3.org/2000/svg" xmlns:xlink="http://www.w3.org/1999/xlink" x="0px" y="0px"
	 viewBox="0 0 6.7 10" style="enable-background:new 0 0 6.7 10;" xml:space="preserve">
<style type="text/css">
	.st0{fill:#007090;}
</style>
<path class="st0" d="M3.9,2v0.2v7.2c0,0.3-0.1,0.5-0.4,0.6c-0.4,0.1-0.7-0.1-0.7-0.5c0-0.4,0-0.8,0-1.2V2.1V2C2.8,2,2.7,2,2.7,2.1
	C2.1,2.6,1.6,3.2,1,3.7C0.9,3.9,0.7,4,0.4,3.9C0,3.8-0.1,3.3,0.2,2.9C0.5,2.6,0.8,2.3,1.1,2c0.6-0.6,1.2-1.2,1.8-1.8
	c0.3-0.3,0.6-0.3,0.9,0C4.7,1.1,5.6,2,6.5,2.9c0.3,0.3,0.2,0.9-0.2,1C6.1,4,5.8,3.9,5.7,3.7C5.1,3.2,4.6,2.6,4,2.1C4,2.1,4,2,3.9,2"
	/>
</svg>
