<?xml version="1.0" encoding="utf-8"?>
<!-- Generator: Adobe Illustrator 24.2.3, SVG Export Plug-In . SVG Version: 6.00 Build 0)  -->
<svg version="1.1" id="Layer_1" xmlns="http://www.w3.org/2000/svg" xmlns:xlink="http://www.w3.org/1999/xlink" x="0px" y="0px"
	 viewBox="0 0 263.4 334" style="enable-background:new 0 0 263.4 334;" xml:space="preserve">
<g>
	<path d="M165.1,285.8l-21.3-1.7l-7.8-19.6c-1.7-3.9-6.7-3.9-8.4,0l-7.8,19.6l-21.3,1.7c-3.9,0.6-5.6,5-2.8,7.8l16.2,14l-5,20.7
		c-1.1,3.9,3.4,6.7,6.7,5l17.9-11.2l17.9,11.2c3.4,2.2,7.8-1.1,6.7-5l-5-20.7l16.2-14C170.7,291.4,169,286.3,165.1,285.8
		L165.1,285.8z"/>
</g>
<path d="M230.9,37.8l-124,124L32.5,87.4l37.8-37.8l36.7,36.7L193.2,0L230.9,37.8z"/>
</svg>
