<?xml version="1.0" encoding="UTF-8" standalone="no"?>
<!-- Created with Inkscape (http://www.inkscape.org/) -->

<svg
   xmlns:dc="http://purl.org/dc/elements/1.1/"
   xmlns:cc="http://creativecommons.org/ns#"
   xmlns:rdf="http://www.w3.org/1999/02/22-rdf-syntax-ns#"
   xmlns:svg="http://www.w3.org/2000/svg"
   xmlns="http://www.w3.org/2000/svg"
   xmlns:sodipodi="http://sodipodi.sourceforge.net/DTD/sodipodi-0.dtd"
   xmlns:inkscape="http://www.inkscape.org/namespaces/inkscape"
   width="13.494933mm"
   height="12.663494mm"
   viewBox="0 0 13.494933 12.663494"
   version="1.1"
   id="svg19944"
   inkscape:version="0.92.5 (2060ec1f9f, 2020-04-08)"
   sodipodi:docname="valuation.svg">
  <defs
     id="defs19938" />
  <sodipodi:namedview
     id="base"
     pagecolor="#ffffff"
     bordercolor="#666666"
     borderopacity="1.0"
     inkscape:pageopacity="0.0"
     inkscape:pageshadow="2"
     inkscape:zoom="0.35"
     inkscape:cx="352.64511"
     inkscape:cy="726.78814"
     inkscape:document-units="mm"
     inkscape:current-layer="layer1"
     showgrid="false"
     fit-margin-top="0"
     fit-margin-left="0"
     fit-margin-right="0"
     fit-margin-bottom="0"
     inkscape:window-width="1920"
     inkscape:window-height="960"
     inkscape:window-x="0"
     inkscape:window-y="27"
     inkscape:window-maximized="1" />
  <metadata
     id="metadata19941">
    <rdf:RDF>
      <cc:Work
         rdf:about="">
        <dc:format>image/svg+xml</dc:format>
        <dc:type
           rdf:resource="http://purl.org/dc/dcmitype/StillImage" />
        <dc:title></dc:title>
      </cc:Work>
    </rdf:RDF>
  </metadata>
  <g
     inkscape:label="Layer 1"
     inkscape:groupmode="layer"
     id="layer1"
     transform="translate(166.25342,-328.46587)">
    <path
       transform="matrix(0.3527778,0,0,0.3527778,-472.89702,300.92854)"
       sodipodi:type="inkscape:offset"
       inkscape:radius="-0.55928397"
       inkscape:original="M 877.63672 77.5 C 876.69531 77.496094 876.02344 77.847656 875.50781 78.632812 C 873.40234 81.820312 871.27344 84.996094 869.15234 88.179688 C 868.47651 89.195312 868.50391 89.980469 869.24609 90.945312 C 875.03125 98.464844 880.81641 105.98438 886.60156 113.50391 C 887.63281 114.84776 889.07031 114.85156 890.10547 113.50781 C 895.90234 105.97656 901.69531 98.445312 907.48828 90.910156 C 908.19136 89.996094 908.21875 89.179688 907.58203 88.21875 C 905.44531 85.011719 903.30078 81.808594 901.17578 78.597656 C 900.67578 77.847656 900.02344 77.4961 899.11719 77.5 C 895.53125 77.51952 891.94141 77.507812 888.35547 77.507812 C 884.78125 77.507812 881.20703 77.51953 877.63672 77.5 z M 878.32422 80.523438 C 879.29297 80.542957 880.26953 80.53125 881.30469 80.53125 C 881.19531 80.898438 881.10151 81.226562 881.00391 81.546875 C 880.39062 83.589844 879.77344 85.632812 879.15625 87.675781 C 879.08984 87.898438 879.05859 88.097656 878.71484 88.097656 C 876.84375 88.074226 874.97656 88.085931 873.10547 88.082031 C 873.04687 88.082031 872.99219 88.070314 872.88672 88.058594 C 872.98437 87.902344 873.0508 87.78125 873.125 87.667969 C 874.63281 85.410156 876.14453 83.152344 877.63672 80.882812 C 877.81641 80.613278 878.00391 80.519537 878.32422 80.523438 z M 891.46484 80.527344 C 891.70312 80.527344 891.86332 80.542969 891.94922 80.832031 C 892.64844 83.191406 893.37109 85.546875 894.08203 87.90625 C 894.09373 87.949219 894.08203 87.996096 894.08203 88.066406 L 882.40625 88.066406 C 883.16406 85.554688 883.91797 83.066406 884.6875 80.53125 L 885.19531 80.53125 C 887.28516 80.53125 889.375 80.535144 891.46484 80.527344 z M 895.26953 80.53125 C 896.39062 80.53125 897.50781 80.527344 898.62109 80.539062 C 898.73437 80.542969 898.88672 80.640621 898.95312 80.738281 C 900.57422 83.152344 902.18359 85.570312 903.85938 88.085938 L 902.32031 88.085938 C 900.83984 88.085937 899.36328 88.082037 897.88281 88.085938 C 897.67578 88.085937 897.49997 88.101562 897.41797 87.824219 C 896.71094 85.449219 895.98828 83.074219 895.26953 80.699219 C 895.25783 80.660156 895.26953 80.60938 895.26953 80.53125 z M 897.84375 91.097656 C 899.69922 91.117176 901.55078 91.109375 903.52344 91.109375 C 899.83203 95.90625 896.21094 100.61328 892.58984 105.32422 L 892.51562 105.28906 C 892.56642 105.14063 892.61717 104.98828 892.66797 104.83594 C 894.1875 100.41016 895.71094 95.984372 897.22266 91.554688 C 897.33594 91.226561 897.47656 91.093756 897.84375 91.097656 z M 878.75391 91.101562 C 879.01562 91.101562 879.17187 91.140625 879.27344 91.429688 C 880.77344 95.828125 882.28516 100.21873 883.79688 104.60938 C 883.82807 104.70703 883.85151 104.81246 883.87891 104.91016 C 883.85941 104.92186 883.83982 104.92971 883.82422 104.94141 C 880.30078 100.35938 876.77734 95.777344 873.21094 91.144531 C 873.38281 91.128901 873.5 91.109375 873.61719 91.109375 C 875.32812 91.105475 877.04297 91.113282 878.75391 91.101562 z M 882.56641 91.128906 L 893.96875 91.128906 C 892.07812 96.625 890.19922 102.08984 888.32031 107.55469 C 888.28515 107.55839 888.25395 107.56241 888.21875 107.56641 C 886.33984 102.10156 884.46094 96.632812 882.56641 91.128906 z "
       style="fill:#ffffff;fill-opacity:1;fill-rule:nonzero;stroke:none"
       id="path28"
       d="m 877.63281,78.058594 c -0.79955,-0.0029 -1.22331,0.218647 -1.6582,0.880859 a 0.5593399,0.5593399 0 0 1 0,0.002 c -2.10687,3.189618 -4.23691,6.366112 -6.35742,9.548828 -0.29916,0.449571 -0.40069,0.777241 -0.39063,1.072266 0.0101,0.295025 0.13448,0.61407 0.46289,1.041016 5.78516,7.519532 11.57032,15.039064 17.35547,22.558594 a 0.5593399,0.5593399 0 0 1 0,0.002 c 0.43937,0.57256 0.89371,0.79037 1.3086,0.79102 0.41488,6.4e-4 0.86755,-0.21654 1.30859,-0.78906 5.7968,-7.53116 11.5899,-15.062579 17.38281,-22.597661 0.30462,-0.39603 0.42337,-0.709711 0.4336,-1.005859 0.0102,-0.296148 -0.0873,-0.61856 -0.36329,-1.035156 -2.13525,-3.20483 -4.27918,-6.408049 -6.40429,-9.619141 l -0.002,-0.002 c -0.41913,-0.627543 -0.83002,-0.850465 -1.58789,-0.847656 h -0.002 c -3.58854,0.01952 -7.1796,0.0078 -10.76367,0.0078 -3.57235,0 -7.14778,0.01172 -10.7207,-0.0078 z m 0.69727,1.90625 a 0.5593399,0.5593399 0 0 1 0.006,0 c 0.95668,0.01928 1.92937,0.0078 2.96875,0.0078 a 0.5593399,0.5593399 0 0 1 0.53515,0.71875 c -0.10833,0.363663 -0.20126,0.690969 -0.30078,1.017578 -0.6133,2.042996 -1.23064,4.086533 -1.84765,6.128907 -0.0269,0.09081 -0.0457,0.258643 -0.20703,0.470703 -0.16195,0.212797 -0.48962,0.347656 -0.76954,0.347656 a 0.5593399,0.5593399 0 0 1 -0.008,0 c -1.86345,-0.02333 -3.72802,-0.01173 -5.60156,-0.01563 h -0.002 c -0.13126,-2.36e-4 -0.194,-0.01591 -0.2793,-0.02539 a 0.5593399,0.5593399 0 0 1 -0.41211,-0.853515 c 0.0892,-0.142791 0.15368,-0.262279 0.24414,-0.400391 a 0.5593399,0.5593399 0 0 1 0.004,-0.0039 c 1.50805,-2.258185 3.01929,-4.514328 4.50976,-6.78125 a 0.5593399,0.5593399 0 0 1 0.002,-0.0039 c 0.24609,-0.369145 0.72614,-0.612684 1.1582,-0.607422 z m 13.13281,0.0039 a 0.5593399,0.5593399 0 0 1 0.002,0 c 0.13137,0 0.31672,-0.01378 0.54883,0.101562 0.23212,0.115345 0.4015,0.368667 0.47071,0.601563 a 0.5593399,0.5593399 0 0 1 0.002,0.002 c 0.6982,2.35595 1.41938,4.70915 2.13086,7.070313 a 0.5593399,0.5593399 0 0 1 0.004,0.01563 c 0.0636,0.233656 0.0195,0.298376 0.0195,0.30664 A 0.5593399,0.5593399 0 0 1 894.08203,88.625 h -11.67578 a 0.5593399,0.5593399 0 0 1 -0.53516,-0.720703 c 0.75794,-2.512131 1.51167,-4.999821 2.28125,-7.535156 a 0.5593399,0.5593399 0 0 1 0.53516,-0.396485 h 0.50781 c 2.09055,0 4.17983,0.0039 6.26758,-0.0039 z m 3.76758,0.0039 a 0.5593399,0.5593399 0 0 1 0.0391,0 c 1.11979,0 2.2389,-0.004 3.35742,0.0078 a 0.5593399,0.5593399 0 0 1 0.0137,0 c 0.20844,0.0072 0.33805,0.07356 0.45704,0.146484 0.11898,0.07292 0.22206,0.15525 0.31836,0.296875 a 0.5593399,0.5593399 0 0 1 0.002,0.002 c 1.62195,2.415332 3.23054,4.8341 4.90625,7.34961 a 0.5593399,0.5593399 0 0 1 -0.46484,0.86914 h -1.53907 c -1.48145,-10e-7 -2.95704,-0.0039 -4.43554,0 a 0.5593399,0.5593399 0 0 1 -0.002,0 c -0.0894,0 -0.24634,0.02743 -0.48047,-0.0625 -0.23331,-0.08962 -0.44618,-0.352763 -0.51953,-0.597656 -0.70638,-2.37284 -1.42952,-4.747509 -2.14843,-7.123047 a 0.5593399,0.5593399 0 0 1 0,-0.002 c -0.0793,-0.264848 -0.0234,-0.30583 -0.0234,-0.328125 a 0.5593399,0.5593399 0 0 1 0.51953,-0.558594 z m 2.61914,10.566406 c 1.84999,0.01946 3.69969,0.01172 5.67383,0.01172 a 0.5593399,0.5593399 0 0 1 0.44336,0.900391 c -3.69138,4.796829 -7.31259,9.504018 -10.9336,14.214848 a 0.5593399,0.5593399 0 0 1 -0.68359,0.16406 l -0.0742,-0.0352 a 0.5593399,0.5593399 0 0 1 -0.28906,-0.6875 c 0.0498,-0.14547 0.0996,-0.29677 0.15039,-0.44922 a 0.5593399,0.5593399 0 0 1 0.002,-0.004 c 1.51963,-4.42606 3.04329,-8.850547 4.55469,-13.2793 a 0.5593399,0.5593399 0 0 1 0,-0.002 c 0.0723,-0.209541 0.17923,-0.440508 0.40234,-0.613281 0.22312,-0.172774 0.50214,-0.223378 0.75391,-0.220704 z m -19.09961,0.0039 a 0.5593399,0.5593399 0 0 1 0.004,0 c 0.15868,0 0.3607,6.64e-4 0.58593,0.123047 0.22524,0.122383 0.38303,0.356402 0.46094,0.578125 a 0.5593399,0.5593399 0 0 1 0.002,0.0059 c 1.49965,4.397403 3.01172,8.78708 4.52344,13.17773 a 0.5593399,0.5593399 0 0 1 0.004,0.0117 c 0.042,0.13143 0.0663,0.24349 0.0879,0.32032 a 0.5593399,0.5593399 0 0 1 -0.25195,0.63085 c -0.0666,0.0399 -0.074,0.0491 -0.006,-0.002 a 0.5593399,0.5593399 0 0 1 -0.7793,-0.10547 c -3.52344,-4.58203 -7.047,-9.164214 -10.61328,-13.796872 a 0.5593399,0.5593399 0 0 1 0.39258,-0.898437 c 0.15221,-0.01384 0.27698,-0.03691 0.45507,-0.03711 1.71349,-0.0039 3.42809,0.0039 5.13477,-0.0078 z m 3.81445,0.02734 a 0.5593399,0.5593399 0 0 1 0.002,0 h 11.40234 a 0.5593399,0.5593399 0 0 1 0.5293,0.740235 c -1.89061,5.496038 -3.76953,10.960933 -5.64844,16.425783 a 0.5593399,0.5593399 0 0 1 -0.4707,0.375 c -0.0275,0.003 -0.0575,0.007 -0.0977,0.0117 a 0.5593399,0.5593399 0 0 1 -0.5918,-0.375 c -1.87893,-5.46493 -3.75788,-10.933799 -5.65234,-16.437503 a 0.5593399,0.5593399 0 0 1 0.52734,-0.740235 z" />
  </g>
</svg>
