<?xml version="1.0" encoding="utf-8"?>
<!-- Generator: Adobe Illustrator 25.0.0, SVG Export Plug-In . SVG Version: 6.00 Build 0)  -->
<svg version="1.1"
	 id="Layer_1" sodipodi:docname="spectre-logo.svg" xmlns:inkscape="http://www.inkscape.org/namespaces/inkscape" xmlns:sodipodi="http://sodipodi.sourceforge.net/DTD/sodipodi-0.dtd" xmlns:svg="http://www.w3.org/2000/svg"
	 xmlns="http://www.w3.org/2000/svg" xmlns:xlink="http://www.w3.org/1999/xlink" x="0px" y="0px" viewBox="0 0 852.8 209.7"
	 style="enable-background:new 0 0 852.8 209.7;" xml:space="preserve">
<style type="text/css">
	.st0{fill:#131816;}
	.st1{fill:#98CDEB;}
	.st2{fill:#10A9DE;}
	.st3{fill:#09153A;}
	.st4{fill:#FFFFFF;}
</style>
<path id="path4" class="st0" d="M56.2,161.5c-10.4,0-20.6-1.7-30.6-5c-10-3.3-18.5-8.1-25.6-14.2l11.9-19.9
	c7.6,5.4,15,9.4,22.2,12.2c7.2,2.8,14.3,4.1,21.5,4.1c6.3,0,11.3-1.2,14.9-3.6s5.5-5.8,5.5-10.2c0-4.4-2.1-7.7-6.4-9.7
	c-4.3-2.1-11.2-4.4-20.9-7.1c-8.1-2.2-14.9-4.3-20.6-6.4c-5.7-2-10.3-4.4-13.8-7s-6-5.6-7.6-9s-2.4-7.5-2.4-12.2
	c0-6.3,1.2-12,3.7-17.1c2.4-5.1,5.9-9.4,10.3-12.9s9.6-6.3,15.5-8.2c5.9-1.9,12.4-2.8,19.3-2.8c9.3,0,18.1,1.3,26.2,4
	c8.1,2.7,15.6,7,22.4,13L89,68.8c-6.3-4.7-12.4-8.2-18.4-10.4C64.7,56.1,58.8,55,52.9,55c-5.4,0-9.9,1.1-13.5,3.3
	c-3.6,2.2-5.5,5.8-5.5,10.7c0,2.2,0.4,4,1.3,5.5c0.9,1.4,2.2,2.7,4.2,3.8s4.4,2.2,7.5,3.2c3.1,1,6.9,2.1,11.5,3.2
	c8.5,2.2,15.8,4.4,21.9,6.6c6.1,2.2,11.1,4.7,14.9,7.6s6.7,6.1,8.5,9.8c1.8,3.7,2.7,8.2,2.7,13.4c0,12.2-4.5,21.8-13.5,28.8
	C84,158,71.7,161.5,56.2,161.5L56.2,161.5z"/>
<path id="path6" class="st0" d="M201.6,161.5c-9.8,0-18.4-2.2-25.6-6.5c-7.3-4.4-13-10.2-17.1-17.7v72.3h-31.8V34.9h27.8v21.3
	c4.6-7.3,10.5-13,17.8-17.2c7.3-4.2,15.7-6.3,25.1-6.3c8.4,0,16.1,1.7,23.2,5.1c7.1,3.4,13.2,8,18.4,13.8s9.2,12.6,12.1,20.4
	c2.9,7.8,4.4,16.1,4.4,24.8c0,9-1.4,17.5-4,25.4c-2.7,7.9-6.4,14.8-11.3,20.6c-4.8,5.9-10.6,10.4-17.2,13.8
	C216.8,159.9,209.5,161.5,201.6,161.5L201.6,161.5z M190.9,134.5c4.7,0,9.1-1,13.2-3.1s7.5-4.8,10.3-8.3c2.9-3.5,5.1-7.5,6.6-12.1
	c1.6-4.6,2.4-9.3,2.4-14.2c0-5.2-0.9-10.1-2.6-14.6s-4.1-8.4-7.2-11.7s-6.7-5.9-10.9-7.8s-8.7-2.8-13.6-2.8c-3,0-6.1,0.5-9.2,1.5
	c-3.2,1-6.1,2.5-8.8,4.4c-2.7,1.9-5.1,4.1-7.2,6.6c-2.1,2.5-3.8,5.3-4.9,8.3v29.2c2.9,7.1,7.2,13,13.1,17.7
	C177.8,132.2,184.1,134.5,190.9,134.5z"/>
<path id="path8" class="st0" d="M335.2,161.5c-10,0-19-1.7-27-5.1c-8.1-3.4-14.9-8-20.6-13.9c-5.7-5.9-10.1-12.6-13.2-20.4
	c-3.1-7.8-4.6-15.9-4.6-24.4c0-8.8,1.5-17.2,4.5-25c3-7.8,7.4-14.7,13-20.6c5.7-5.9,12.6-10.6,20.8-14.1c8.1-3.5,17.3-5.2,27.4-5.2
	c10.1,0,19.2,1.7,27.2,5.2c8,3.5,14.8,8.2,20.4,14c5.6,5.8,9.9,12.7,12.8,20.4c2.9,7.8,4.4,15.8,4.4,24.2c0,2.1,0,4-0.1,5.9
	s-0.3,3.5-0.6,4.7h-96.1c0.5,4.9,1.7,9.2,3.6,13.1s4.4,7,7.4,9.7c3,2.7,6.4,4.7,10.2,6.2c3.8,1.4,7.8,2.1,11.9,2.1
	c6.3,0,12.3-1.5,17.9-4.6c5.6-3.1,9.5-7.2,11.5-12.2l27.3,7.6c-4.6,9.5-11.9,17.3-21.9,23.4C361.1,158.5,349.1,161.5,335.2,161.5
	L335.2,161.5z M367.4,86.6c-0.8-9.3-4.2-16.8-10.3-22.4c-6.1-5.6-13.5-8.4-22.2-8.4c-4.3,0-8.3,0.8-12,2.2s-7,3.6-9.8,6.3
	c-2.9,2.7-5.2,5.9-7,9.7c-1.8,3.8-2.9,8-3.2,12.6H367.4z"/>
<path id="path10" class="st0" d="M411.8,97c0-8.7,1.5-16.9,4.5-24.7c3-7.8,7.4-14.5,13-20.4c5.7-5.8,12.6-10.5,20.6-14
	c8.1-3.5,17.2-5.2,27.3-5.2c13.6,0,25.2,2.9,34.8,8.8c9.6,5.8,16.7,13.5,21.5,23L502.4,74c-2.7-4.6-6.2-8.1-10.7-10.6
	c-4.4-2.5-9.3-3.7-14.7-3.7c-4.6,0-8.9,0.9-12.8,2.7s-7.4,4.3-10.3,7.6c-2.9,3.2-5.2,7.2-6.9,11.7c-1.7,4.6-2.5,9.7-2.5,15.2
	c0,5.5,0.9,10.6,2.6,15.2c1.7,4.6,4.1,8.5,7,11.9c2.9,3.3,6.4,5.9,10.3,7.7c4,1.8,8.1,2.7,12.6,2.7c5.7,0,11-1.4,15.8-4.3
	c4.8-2.8,8.2-6.3,10.1-10.4l31.1,9.5c-4.3,9.5-11.3,17.2-21.1,23.2c-9.8,6-21.6,9-35.3,9c-10.1,0-19.2-1.7-27.3-5.2
	c-8.1-3.5-14.9-8.2-20.6-14.1c-5.7-5.9-10.1-12.8-13.2-20.6C413.3,113.7,411.8,105.6,411.8,97L411.8,97z"/>
<path id="path12" class="st0" d="M627.9,152.8c-4.3,1.9-9.5,3.8-15.7,5.7c-6.2,1.9-12.7,2.9-19.5,2.9c-4.4,0-8.6-0.6-12.5-1.7
	c-3.9-1.1-7.3-2.9-10.2-5.3c-2.9-2.4-5.3-5.6-7-9.5c-1.8-3.9-2.6-8.6-2.6-14.1V65.3l31.8,0V120c0,4.4,1.1,7.6,3.4,9.4
	c2.3,1.8,5.1,2.7,8.4,2.7s6.6-0.6,9.7-1.7c3.2-1.1,5.7-2.1,7.6-2.8L627.9,152.8z"/>
<path id="path14" class="st0" d="M718.5,62.4c-9.7,0.2-18.3,2-25.8,5.6c-7.6,3.6-13,8.9-16.4,16v75.2h-31.8V31.6h29.2v29.8
	c2.2-4.3,4.8-8.1,7.8-11.5c3-3.4,6.2-6.4,9.7-8.9c3.5-2.5,7-4.5,10.6-5.8s7-2,10.3-2c1.7,0,3,0,3.9,0s1.7,0.1,2.5,0.2L718.5,62.4
	L718.5,62.4z"/>
<path id="path16" class="st0" d="M787.7,161.5c-10,0-19-1.7-27-5.1c-8.1-3.4-14.9-8-20.6-13.9c-5.7-5.9-10.1-12.6-13.2-20.4
	c-3.1-7.8-4.6-15.9-4.6-24.4c0-8.8,1.5-17.2,4.5-25c3-7.8,7.3-14.7,13-20.6c5.7-5.9,12.6-10.6,20.8-14.1c8.1-3.5,17.3-5.2,27.4-5.2
	c10.1,0,19.2,1.7,27.2,5.2c8,3.5,14.8,8.2,20.4,14c5.6,5.8,9.9,12.7,12.8,20.4c2.9,7.8,4.4,15.8,4.4,24.2c0,2.1,0,4-0.1,5.9
	s-0.3,3.5-0.6,4.7H756c0.5,4.9,1.7,9.2,3.6,13.1s4.3,7,7.3,9.7c3,2.7,6.4,4.7,10.2,6.2c3.8,1.4,7.8,2.1,11.9,2.1
	c6.3,0,12.3-1.5,17.9-4.6c5.6-3.1,9.5-7.2,11.5-12.2l27.3,7.6c-4.6,9.5-11.9,17.3-21.9,23.4C813.6,158.5,801.7,161.5,787.7,161.5
	L787.7,161.5z M820,86.6c-0.8-9.3-4.2-16.8-10.3-22.4c-6.1-5.6-13.5-8.4-22.2-8.4c-4.3,0-8.3,0.8-12,2.2c-3.7,1.5-7,3.6-9.8,6.3
	c-2.8,2.7-5.2,5.9-7,9.7c-1.8,3.8-2.9,8-3.2,12.6L820,86.6z"/>
<polygon id="polygon18" class="st0" points="560.5,31 560.5,24.3 599.1,24.3 599.1,58.7 592.4,58.7 592.4,31 "/>
<rect id="rect20" x="560.5" class="st1" width="63.9" height="13.6"/>
<rect id="rect22" x="560.5" y="13.6" class="st2" width="50.3" height="10.8"/>
<rect id="rect24" x="599.1" y="22.3" class="st2" width="11.7" height="36.4"/>
<rect id="rect26" x="610.8" y="5.7" class="st1" width="13.6" height="53"/>
</svg>
