<?xml version="1.0" encoding="utf-8"?>
<!-- Generator: Adobe Illustrator 24.2.3, SVG Export Plug-In . SVG Version: 6.00 Build 0)  -->
<svg version="1.1" id="Layer_1" xmlns="http://www.w3.org/2000/svg" xmlns:xlink="http://www.w3.org/1999/xlink" x="0px" y="0px"
	 viewBox="0 0 476 472.6" style="enable-background:new 0 0 476 472.6;" xml:space="preserve">
<path d="M281.2,0c-49.9,0-99.8,19-137.8,57c-62.3,62.3-73.4,156.5-33.7,230.3l-94.2,94.3c-20.7,20.7-20.7,54.7,0,75.4
	s54.7,20.7,75.4,0l93.2-93.2c74.4,42.7,171.2,32.3,234.7-31.2c76-76,76.1-199.6,0.1-275.6C381,19,331.1,0,281.2,0L281.2,0z
	 M281.2,27.8c42.7,0,85.4,16.3,118,49c65.3,65.3,65.3,170.8,0,236.1c-56.7,56.7-143.8,64.1-208.4,22.2c-0.6-0.5-1.3-0.9-2-1.3
	c-9-6-17.6-13-25.6-21c-9.1-9.1-17-19.1-23.6-29.6c0-0.1-0.1-0.1-0.1-0.2h0c-0.3-0.6-0.6-1.1-1-1.6c-39.2-64.3-31-149,24.6-204.6
	C195.8,44.2,238.5,27.8,281.2,27.8L281.2,27.8z M251.8,106c-3.7,0-7.3,1.5-10,4.1c-2.6,2.6-4.1,6.2-4.1,10v67.1h-44.8
	c-7.7,0-14,6.3-13.9,14.1v68.4c0,7.7,6.3,13.9,13.9,13.9h176.5c7.7,0,14-6.2,14.1-13.9v-109c0-3.7-1.5-7.3-4.1-9.9s-6.2-4.1-9.9-4.1
	h-44.7V120c0-3.7-1.5-7.3-4.1-10c-2.6-2.6-6.2-4.1-10-4.1L251.8,106z M265.7,134h30.9v121.6h-30.9v-54.5c0-0.2,0-0.4,0-0.7V134z
	 M324.7,174.6h30.8v81h-30.8V174.6z M207,215.1h30.8v40.5H207V215.1z M125.2,311.5c5.5,7.3,11.6,14.4,18.3,21.1
	c5.5,5.5,11.2,10.5,17.1,15.2l-89.4,89.4c-10.1,10.1-25.7,10.1-35.8,0c-10.1-10.1-10.1-25.7,0-35.8L125.2,311.5z"/>
</svg>
