<?xml version="1.0" encoding="UTF-8" standalone="no"?>
<!-- Created with Inkscape (http://www.inkscape.org/) -->

<svg
   xmlns:dc="http://purl.org/dc/elements/1.1/"
   xmlns:cc="http://creativecommons.org/ns#"
   xmlns:rdf="http://www.w3.org/1999/02/22-rdf-syntax-ns#"
   xmlns:svg="http://www.w3.org/2000/svg"
   xmlns="http://www.w3.org/2000/svg"
   xmlns:sodipodi="http://sodipodi.sourceforge.net/DTD/sodipodi-0.dtd"
   xmlns:inkscape="http://www.inkscape.org/namespaces/inkscape"
   width="16.386335mm"
   height="13.071465mm"
   viewBox="0 0 16.386335 13.071465"
   version="1.1"
   id="svg7993"
   inkscape:version="0.92.5 (2060ec1f9f, 2020-04-08)"
   sodipodi:docname="benchmark.svg">
  <defs
     id="defs7987" />
  <sodipodi:namedview
     id="base"
     pagecolor="#ffffff"
     bordercolor="#666666"
     borderopacity="1.0"
     inkscape:pageopacity="0.0"
     inkscape:pageshadow="2"
     inkscape:zoom="0.35"
     inkscape:cx="-44.747982"
     inkscape:cy="644.702"
     inkscape:document-units="mm"
     inkscape:current-layer="layer1"
     showgrid="false"
     fit-margin-top="0"
     fit-margin-left="0"
     fit-margin-right="0"
     fit-margin-bottom="0"
     inkscape:window-width="1920"
     inkscape:window-height="960"
     inkscape:window-x="0"
     inkscape:window-y="27"
     inkscape:window-maximized="1" />
  <metadata
     id="metadata7990">
    <rdf:RDF>
      <cc:Work
         rdf:about="">
        <dc:format>image/svg+xml</dc:format>
        <dc:type
           rdf:resource="http://purl.org/dc/dcmitype/StillImage" />
        <dc:title></dc:title>
      </cc:Work>
    </rdf:RDF>
  </metadata>
  <g
     inkscape:label="Layer 1"
     inkscape:groupmode="layer"
     id="layer1"
     transform="translate(61.109835,-306.33927)">
    <g
       transform="matrix(0.3527778,0,0,0.3527778,-159.38505,226.88822)"
       id="g7971">
      <path
         inkscape:connector-curvature="0"
         id="path30"
         d="m 320.4375,228.57031 c -0.66406,0.21875 -1.32031,0.44531 -1.98438,0.64844 -0.66796,0.20703 -0.94531,0.0156 -1.22265,-0.82031 -0.26172,-0.78516 -0.16016,-1.09375 0.5039,-1.32422 1.73438,-0.59766 3.46875,-1.19922 5.21094,-1.75781 1.22656,-0.39063 2.25391,0.39453 2.05469,1.64843 -0.30078,1.91016 -0.72656,3.80469 -1.12109,5.69922 -0.0937,0.44141 -0.4375,0.63281 -0.89063,0.58203 -0.12109,-0.0156 -0.24219,-0.0508 -0.36328,-0.0742 -0.89453,-0.17187 -1.08203,-0.44531 -0.90234,-1.32031 0.0781,-0.39453 0.14843,-0.78906 0.24609,-1.29687 -1.11719,1.05078 -2.10938,2.03515 -3.15234,2.96093 -4.76563,4.21875 -10.17969,7.4336 -15.91797,10.125 -7.35938,3.44922 -15.03125,5.99219 -22.96094,7.75782 -0.83203,0.18359 -1.125,0.0586 -1.25781,-0.53125 -0.25391,-1.11328 -0.0664,-1.47657 0.80859,-1.70703 2.94922,-0.77735 5.91797,-1.48047 8.82813,-2.375 7.99218,-2.45704 15.64843,-5.67969 22.69531,-10.23438 3.35937,-2.16797 6.46875,-4.64062 9.20703,-7.5625 0.0977,-0.10547 0.1875,-0.21484 0.28125,-0.32031 -0.0195,-0.0312 -0.043,-0.0625 -0.0625,-0.0977"
         style="fill:#ffffff;fill-opacity:1;fill-rule:nonzero;stroke:none" />
      <path
         inkscape:connector-curvature="0"
         id="path32"
         d="m 314.86328,259.9375 h 4.75391 v -0.80078 c 0,-7.01563 0,-14.03516 0,-21.05469 0,-1.0625 0.875,-2.40234 1.84765,-2.77344 0.10157,-0.0391 0.35547,0.11328 0.41797,0.23828 0.0742,0.14844 0.0274,0.36329 0.0274,0.55079 0,7.96484 0,15.93359 0,23.89843 0,1.53516 -0.73829,2.26172 -2.28907,2.26563 -1.60937,0 -3.21875,0 -4.82812,0 -1.46485,-0.004 -2.19531,-0.73828 -2.19531,-2.21875 -0.004,-5.65235 -0.004,-11.3086 -0.004,-16.96485 0.004,-1.0625 0.76953,-2.05078 1.80469,-2.27734 0.125,-0.0273 0.37109,0.13672 0.42968,0.26953 0.0781,0.17188 0.0352,0.40625 0.0352,0.61328 0,5.83985 0,11.67969 0,17.51953 z m 0,0"
         style="fill:#ffffff;fill-opacity:1;fill-rule:nonzero;stroke:none" />
      <path
         inkscape:connector-curvature="0"
         id="path34"
         d="m 303.55859,259.9375 h 4.73828 v -0.75 c 0,-4.53906 0,-9.07813 0,-13.61719 0,-1.08203 0.71094,-1.94922 1.77344,-2.11328 0.14453,-0.0195 0.39063,0.16406 0.46875,0.31641 0.0899,0.16406 0.043,0.40234 0.043,0.60937 0,5.17578 0.004,10.35547 0,15.53516 0,1.63672 -0.70312,2.34375 -2.32422,2.34375 -1.60937,0 -3.21875,0.004 -4.82812,0 -1.40625,-0.008 -2.17188,-0.77735 -2.17578,-2.19141 -0.004,-3.73828 0,-7.46875 0,-11.20312 0.004,-0.98828 0.79296,-1.8125 1.79296,-1.82813 0.16016,0 0.38282,0.19922 0.46485,0.36328 0.0859,0.16407 0.0469,0.40235 0.0469,0.60938 0,3.71094 0,7.42578 0,11.13672 z m 0,0"
         style="fill:#ffffff;fill-opacity:1;fill-rule:nonzero;stroke:none" />
      <path
         inkscape:connector-curvature="0"
         id="path36"
         d="m 292.21484,259.92969 h 4.77344 v -0.69922 c 0,-2.84766 0,-5.69531 0.004,-8.54297 0,-1.08594 0.66797,-1.80469 1.73828,-1.80859 0.17187,0 0.375,0.23437 0.5039,0.40234 0.0703,0.0937 0.0234,0.28125 0.0234,0.42578 0,3.44531 0,6.89063 0,10.33984 -0.004,1.46875 -0.74219,2.21094 -2.20312,2.21485 -1.64844,0 -3.30078,0 -4.95313,-0.004 -1.38672,0 -2.14844,-0.75781 -2.14844,-2.13672 -0.004,-2.39453 -0.004,-4.78515 0,-7.17968 0,-0.89454 0.98438,-1.7461 1.82813,-1.51172 0.19531,0.0508 0.41016,0.44922 0.41406,0.6914 0.0391,1.58985 0.0195,3.17969 0.0195,4.76563 0,0.98828 0,1.97656 0,3.04297"
         style="fill:#ffffff;fill-opacity:1;fill-rule:nonzero;stroke:none" />
      <path
         inkscape:connector-curvature="0"
         id="path38"
         d="m 280.91016,259.92969 h 4.73828 v -0.69532 c 0,-1.6914 -0.008,-3.38281 0.004,-5.07812 0.004,-0.89453 1.06641,-1.69531 1.89844,-1.39844 0.18359,0.0664 0.38281,0.39844 0.38281,0.60938 0.0274,2.35547 0.0469,4.70703 0,7.05859 -0.0234,1.08203 -0.85937,1.82031 -1.96093,1.82813 -1.79297,0.0195 -3.58985,0.0195 -5.38672,0 -1.125,-0.0117 -1.92578,-0.76954 -1.95313,-1.89844 -0.0351,-1.62891 0,-3.25781 -0.0117,-4.89063 -0.004,-0.55468 0.24219,-0.78515 0.79297,-0.87109 1.46875,-0.22266 1.4961,-0.21875 1.4961,1.28516 0,1.33984 0,2.67578 0,4.05078"
         style="fill:#ffffff;fill-opacity:1;fill-rule:nonzero;stroke:none" />
    </g>
  </g>
</svg>
