<?xml version="1.0" encoding="utf-8"?>
<!-- Generator: Adobe Illustrator 22.0.0, SVG Export Plug-In . SVG Version: 6.00 Build 0)  -->
<svg version="1.1" id="Layer_1" xmlns="http://www.w3.org/2000/svg" xmlns:xlink="http://www.w3.org/1999/xlink" x="0px" y="0px"
	 viewBox="0 0 9.6 11.4" style="enable-background:new 0 0 9.6 11.4;" xml:space="preserve">
<style type="text/css">
	.st0{fill:#007090;}
</style>
<path class="st0" d="M4.8,8.1C4.2,9,3.7,10,3.1,10.9C3,11,3,11.2,2.8,11.2S2.6,11,2.5,10.9c-0.2-0.3-0.3-0.7-0.5-1
	c0-0.1-0.1-0.1-0.2-0.1c-0.4,0-0.8,0-1.2,0.1c-0.1,0-0.3,0-0.4-0.1s0-0.2,0.1-0.4C1,8.2,1.7,7,2.4,5.8c0.1-0.1,0.1-0.2,0-0.3
	c-1.1-1.3-1-3.2,0.3-4.4s3.2-1.2,4.4,0s1.3,3.1,0.2,4.4c-0.1,0.1-0.1,0.2,0,0.3C8,7,8.6,8.2,9.3,9.4c0.1,0.1,0.1,0.2,0.1,0.3
	S9.2,9.8,9.1,9.8c-0.4,0-0.8,0-1.2-0.1c-0.1,0-0.2,0-0.3,0.1c-0.2,0.4-0.4,0.7-0.5,1.1C7,11,6.9,11.1,6.9,11.1
	c-0.1,0-0.2-0.1-0.3-0.2C6,10.1,5.5,9.2,4.9,8.3C4.9,8.2,4.9,8.1,4.8,8.1 M4.8,0.7C3.3,0.7,2,1.9,2,3.5C2,5,3.2,6.3,4.8,6.3
	c1.5,0,2.8-1.2,2.8-2.8C7.6,1.9,6.4,0.7,4.8,0.7 M6.8,10.5c0.2-0.4,0.3-0.7,0.5-1c0.1-0.2,0.2-0.3,0.4-0.2c0.3,0,0.7,0,1.1,0.1
	C8.1,8.2,7.5,7.1,6.8,6C6.5,6.2,6.1,6.4,5.7,6.5C5.4,6.6,5,6.6,4.6,6.7C5.3,8,6,9.2,6.8,10.5 M2.8,10.5c0.1-0.1,0.1-0.1,0.1-0.2
	c0.4-0.7,0.8-1.5,1.3-2.1c0.3-0.4,0.3-0.7,0-1.1C4,6.7,3.9,6.4,3.5,6.3C3.3,6.3,3,6.1,2.8,6c-0.7,1.1-1.3,2.2-2,3.4
	c0.4,0,0.7,0,1-0.1c0.3,0,0.5,0,0.6,0.3C2.5,9.9,2.7,10.2,2.8,10.5"/>
<path class="st0" d="M2.8,11.4L2.8,11.4c-0.3,0-0.4-0.2-0.5-0.4c0,0,0,0,0-0.1c-0.2-0.3-0.3-0.7-0.5-1l0,0C1.4,10,1,10,0.6,10.1
	c-0.1,0-0.4,0-0.5-0.2c-0.2-0.2-0.1-0.5,0-0.6l0.5-0.9c0.5-0.9,1.1-1.8,1.6-2.7c0,0,0,0,0-0.1l0,0C1,4.2,1.2,2.2,2.5,0.9
	c1.3-1.2,3.4-1.2,4.7,0s1.4,3.3,0.3,4.7v0.1c0,0,0,0,0,0.1C8.2,7,8.9,8.2,9.6,9.4c0.1,0.1,0.1,0.3,0.1,0.5c-0.1,0.3-0.4,0.3-0.5,0.3
	H8.8c-0.3,0-0.5,0-0.8-0.1L7.6,9.9L7.8,10c-0.2,0.4-0.4,0.8-0.5,1.1c0,0-0.2,0.3-0.4,0.3c-0.2,0-0.3-0.2-0.4-0.3
	C6,10.4,5.5,9.7,5.1,9L4.8,8.5L4.7,8.6C4.2,9.5,3.8,10.2,3.3,11v0.1C3.2,11.2,3.1,11.4,2.8,11.4 M1.8,9.6c0.2,0,0.3,0.1,0.4,0.3
	c0.2,0.3,0.3,0.7,0.5,1V11c0.1,0.1,0.1,0,0.1,0s0,0,0.1-0.1v-0.1c0.5-0.8,1-1.5,1.5-2.4l0.4-0.8l0.7,1.1c0.4,0.7,0.8,1.4,1.2,2.1
	l0.1,0.1l0.1-0.1c0.2-0.3,0.3-0.7,0.5-1.1c0.1-0.2,0.2-0.3,0.5-0.3s0.5,0,0.8,0.1h0.4c0.1,0,0.1,0,0.2,0c0,0,0-0.1-0.1-0.2
	c-0.7-1-1.4-2.2-2.1-3.4C7,5.7,7,5.6,7.1,5.4c1-1.2,0.9-3-0.2-4.1c-1.2-1.1-3-1.1-4.2,0c-1.1,1-1.2,2.8-0.2,4.1
	c0.1,0.2,0.2,0.3,0,0.6C2,6.8,1.5,7.7,1,8.7L0.5,9.5c0,0,0,0.1-0.1,0.1c0,0,0.1,0,0.2,0l0,0C1,9.6,1.4,9.6,1.8,9.6L1.8,9.6
	 M6.8,10.9L4.2,6.5h0.3c0.1,0,0.3,0,0.4,0c0.3,0,0.5-0.1,0.8-0.1C5.9,6.2,6.2,6.1,6.4,6c0.1-0.1,0.2-0.1,0.4-0.2L7,5.7l2.2,3.8H8.5
	c-0.3,0-0.5,0-0.7,0c-0.1,0-0.2,0-0.2,0.1C7.5,9.8,7.4,10,7.3,10.3L6.8,10.9z M4.9,6.8l1.9,3.3C6.9,9.9,7,9.7,7.1,9.5
	c0.1-0.3,0.3-0.4,0.6-0.4c0.2,0,0.5,0,0.7,0L6.8,6.3c-0.1,0-0.1,0.1-0.2,0.1C6.3,6.5,6.1,6.6,5.8,6.7C5.5,6.8,5.2,6.8,4.9,6.8
	L4.9,6.8 M2.8,10.9l-0.2-0.3c0-0.1-0.1-0.2-0.1-0.3c-0.1-0.2-0.2-0.4-0.3-0.6c0-0.2-0.1-0.2-0.3-0.2s-0.4,0-0.7,0H0.5l2.3-3.9L3,5.7
	c0.1,0,0.1,0.1,0.2,0.1C3.3,6,3.4,6.1,3.5,6.1C4,6.3,4.2,6.6,4.4,6.9l0,0c0.3,0.5,0.3,0.9,0,1.4s-0.6,1-0.9,1.5
	c-0.1,0.2-0.2,0.4-0.4,0.6L3,10.5L2.8,10.9z M2,9.1c0.3,0,0.5,0.2,0.6,0.5c0.1,0.2,0.2,0.4,0.3,0.5C3,9.9,3.1,9.7,3.2,9.6
	c0.3-0.5,0.6-1,0.9-1.5c0.2-0.4,0.2-0.6,0-0.9l0,0C3.9,6.8,3.7,6.6,3.4,6.5c-0.2,0-0.3-0.1-0.5-0.2l0,0L1.2,9.2c0.2,0,0.4,0,0.6,0
	C1.9,9.1,1.9,9.1,2,9.1 M4.8,6.4L4.8,6.4c-1.6,0-3-1.3-3-3c0-1.6,1.3-3,3-3l0,0c1.6,0,3,1.3,3,3c0,0.8-0.3,1.5-0.9,2.1
	C6.4,6.1,5.6,6.4,4.8,6.4 M4.8,0.9C3.4,0.9,2.3,2,2.3,3.4S3.4,6,4.8,6l0,0c0.7,0,1.3-0.3,1.8-0.8s0.8-1.1,0.8-1.8
	C7.4,2,6.2,0.9,4.8,0.9L4.8,0.9z"/>
</svg>
