<?xml version="1.0" encoding="utf-8"?>
<!-- Generator: Adobe Illustrator 22.0.0, SVG Export Plug-In . SVG Version: 6.00 Build 0)  -->
<svg version="1.1" id="Layer_1" xmlns="http://www.w3.org/2000/svg" xmlns:xlink="http://www.w3.org/1999/xlink" x="0px" y="0px"
	 viewBox="0 0 6.7 10" style="enable-background:new 0 0 6.7 10;" xml:space="preserve">
<style type="text/css">
	.st0{fill:#007090;}
</style>
<path class="st0" d="M2.8,8V7.8V0.6c0-0.3,0.1-0.5,0.4-0.6c0.4-0.1,0.7,0.1,0.7,0.5c0,0.4,0,0.8,0,1.2v6.1V8C4,8,4,7.9,4,7.9
	c0.6-0.6,1.1-1.1,1.7-1.7C5.9,6.1,6.1,6,6.3,6.1c0.4,0.1,0.6,0.6,0.2,1C6.2,7.4,5.9,7.7,5.6,8C5,8.6,4.4,9.2,3.8,9.8
	c-0.3,0.3-0.6,0.3-0.9,0C2,8.9,1.1,8,0.2,7.1c-0.3-0.3-0.2-0.9,0.2-1C0.7,6,0.9,6.1,1,6.3c0.5,0.5,1.1,1.1,1.6,1.6
	C2.7,7.9,2.7,8,2.8,8"/>
</svg>
