<?xml version="1.0" encoding="utf-8"?>
<!-- Generator: Adobe Illustrator 24.2.3, SVG Export Plug-In . SVG Version: 6.00 Build 0)  -->
<svg version="1.1" id="Layer_1" xmlns="http://www.w3.org/2000/svg" xmlns:xlink="http://www.w3.org/1999/xlink" x="0px" y="0px"
	 viewBox="0 0 263.4 334" style="enable-background:new 0 0 263.4 334;" xml:space="preserve">
<g>
	<path d="M70.8,285.8l-21.3-1.7l-7.8-19.6c-1.7-3.9-6.7-3.9-8.4,0l-7.8,19.6l-21.3,1.7c-3.9,0.6-5.6,5-2.8,7.8l16.2,14l-5,20.7
		c-1.1,3.9,3.4,6.7,6.7,5l17.9-11.2l17.9,11.2c3.4,2.2,7.8-1.1,6.7-5l-5-20.7l16.2-14C76.4,291.4,74.7,286.3,70.8,285.8L70.8,285.8z
		 M166.5,285.8l-21.3-1.7l-7.8-19.6c-1.7-3.9-6.7-3.9-8.4,0l-7.8,19.6l-21.8,1.7c-3.9,0.6-5.6,5-2.8,7.8l16.2,14l-5,20.7
		c-1.1,3.9,3.4,6.7,6.7,5l17.9-11.2l17.9,11.2c3.4,2.2,7.8-1.1,6.7-5l-5-20.7l16.2-14C172.1,291.4,170.4,286.3,166.5,285.8
		L166.5,285.8z M259.5,285.8l-21.3-1.7l-7.8-19.6c-1.7-3.9-6.7-3.9-8.4,0l-7.8,19.6l-21.8,1.7c-3.9,0.6-5.6,5-2.8,7.8l16.2,14
		l-5,20.7c-1.1,3.9,3.4,6.7,6.7,5l17.9-11.2l17.9,11.2c3.4,2.2,7.8-1.1,6.7-5l-5-20.7l16.2-14C265.1,291.4,263.4,286.3,259.5,285.8
		L259.5,285.8z"/>
</g>
<g>
	<path d="M67.9,0h128.2l-30.9,53.3H98.8L67.9,0L67.9,0z M63.9,3.1l29.3,50.3h-49L63.9,3.1z M116.9,157.1L45,58.2h50.4L116.9,157.1
		L116.9,157.1z M140,167l-8,10.9l0,0l-8-10.9L100.5,58.2h63L140,167z M147.1,157.1l21.4-99h50.4L147.1,157.1z M170.8,53.3L200,3.1
		l19.7,50.3H170.8z"/>
</g>
</svg>
