<?xml version="1.0" encoding="UTF-8" standalone="no"?>
<!-- Created with Inkscape (http://www.inkscape.org/) -->

<svg
   xmlns:dc="http://purl.org/dc/elements/1.1/"
   xmlns:cc="http://creativecommons.org/ns#"
   xmlns:rdf="http://www.w3.org/1999/02/22-rdf-syntax-ns#"
   xmlns:svg="http://www.w3.org/2000/svg"
   xmlns="http://www.w3.org/2000/svg"
   xmlns:sodipodi="http://sodipodi.sourceforge.net/DTD/sodipodi-0.dtd"
   xmlns:inkscape="http://www.inkscape.org/namespaces/inkscape"
   width="88.545418mm"
   height="139.4514mm"
   viewBox="0 0 88.545418 139.4514"
   version="1.1"
   id="svg3751"
   inkscape:version="0.92.5 (2060ec1f9f, 2020-04-08)"
   sodipodi:docname="award.svg">
  <defs
     id="defs3745" />
  <sodipodi:namedview
     id="base"
     pagecolor="#ffffff"
     bordercolor="#666666"
     borderopacity="1.0"
     inkscape:pageopacity="0.0"
     inkscape:pageshadow="2"
     inkscape:zoom="0.35"
     inkscape:cx="-1316.6631"
     inkscape:cy="214.95878"
     inkscape:document-units="mm"
     inkscape:current-layer="g20"
     showgrid="false"
     fit-margin-top="0"
     fit-margin-left="0"
     fit-margin-right="0"
     fit-margin-bottom="0"
     inkscape:window-width="1920"
     inkscape:window-height="960"
     inkscape:window-x="0"
     inkscape:window-y="27"
     inkscape:window-maximized="1" />
  <metadata
     id="metadata3748">
    <rdf:RDF>
      <cc:Work
         rdf:about="">
        <dc:format>image/svg+xml</dc:format>
        <dc:type
           rdf:resource="http://purl.org/dc/dcmitype/StillImage" />
        <dc:title></dc:title>
      </cc:Work>
    </rdf:RDF>
  </metadata>
  <g
     inkscape:label="Layer 1"
     inkscape:groupmode="layer"
     id="layer1"
     transform="translate(-481.87015,-66.256441)">
    <g
       id="g20"
       transform="matrix(0.35277777,0,0,-0.35277777,495.21023,155.50807)">
      <path
         d="m 0,0 c 1.594,-1.799 2.668,-3.067 3.801,-4.281 10.698,-11.467 21.36,-22.968 32.136,-34.361 3.544,-3.747 4.698,-8.04 3.789,-12.96 -2.202,-11.914 -4.497,-23.811 -6.708,-35.723 -1.176,-6.333 -2.256,-12.684 -3.463,-19.496 2.097,0.964 3.65,1.624 5.156,2.377 15.036,7.516 30.135,14.91 45.056,22.647 5.526,2.865 10.483,2.791 15.945,-0.029 13.768,-7.107 27.676,-13.942 41.533,-20.876 2.4,-1.201 4.824,-2.357 7.86,-3.837 -0.314,1.976 -0.471,3.238 -0.72,4.482 -3.253,16.22 -6.37,32.469 -9.862,48.637 -1.209,5.601 0.256,9.907 4.029,13.9 9.781,10.354 19.478,20.79 29.202,31.199 2.299,2.461 4.574,4.944 7.112,7.69 -1.305,0.402 -2.128,0.763 -2.987,0.905 -16.071,2.657 -32.128,5.412 -48.231,7.858 -5.582,0.847 -9.284,3.549 -11.679,8.561 -7.42,15.523 -14.937,30.999 -22.426,46.488 -0.544,1.126 -1.165,2.215 -1.984,3.764 -0.885,-1.678 -1.562,-2.89 -2.173,-4.133 C 78.254,48.307 70.961,33.877 64.09,19.25 61.176,13.044 56.751,10.047 50.084,8.958 33.647,6.272 17.286,3.124 0,0 M 75.125,227.713 H 12.383 v -3.719 c 0.001,-41.95 -0.035,-83.9 0.104,-125.85 0.007,-2.214 0.992,-4.834 2.388,-6.568 11.057,-13.737 22.328,-27.302 33.517,-40.932 0.486,-0.594 0.813,-1.319 1.578,-2.586 2.666,5.356 4.863,9.729 7.025,14.12 6.277,12.752 12.593,25.484 18.784,38.278 2.434,5.029 6.104,8.173 11.803,8.201 5.876,0.029 9.581,-3.209 12.068,-8.395 10.318,-21.514 20.779,-42.959 31.106,-64.468 1.148,-2.39 2.345,-3.721 5.318,-4.183 22.034,-3.419 44.022,-7.129 66.018,-10.788 5.025,-0.836 8.642,-3.554 10.337,-8.474 1.702,-4.939 0.44,-9.248 -3.048,-12.983 -15.16,-16.238 -30.271,-32.523 -45.558,-48.64 -2.589,-2.73 -3.45,-5.101 -2.633,-8.949 4.794,-22.569 9.182,-45.224 13.845,-67.821 1.147,-5.559 -0.072,-10.17 -4.532,-13.619 -4.364,-3.374 -9.135,-3.328 -13.999,-0.887 -21.68,10.879 -43.391,21.696 -65.034,32.646 -2.668,1.35 -4.795,1.414 -7.527,0.03 -21.392,-10.838 -42.896,-21.456 -64.3,-32.271 -5.108,-2.581 -10.017,-3.137 -14.71,0.415 -4.798,3.629 -5.651,8.522 -4.541,14.35 4.462,23.438 8.586,46.94 13.039,70.379 0.475,2.502 -0.298,3.862 -1.796,5.462 -15.006,16.024 -29.936,32.119 -44.97,48.117 -3.681,3.916 -5.561,8.176 -3.829,13.505 1.773,5.453 5.799,7.927 11.292,8.89 C -6.894,24.3 12.053,27.81 31.694,31.374 26.197,38.069 21.021,44.382 15.837,50.688 7.542,60.78 -0.723,70.897 -9.078,80.939 c -2.551,3.065 -3.673,6.418 -3.668,10.419 0.061,49.269 0.035,98.538 0.044,147.806 10e-4,8.784 5.051,13.824 13.864,13.826 57.632,0.009 115.265,0.009 172.897,0 9.031,-0.001 13.984,-5.01 13.985,-14.101 0.003,-49.007 -0.028,-98.014 0.05,-147.021 0.007,-4.428 -1.219,-8.087 -4.086,-11.455 -7.875,-9.251 -15.551,-18.671 -23.4,-27.945 -5.134,-6.066 -12.84,-6.918 -18.344,-2.213 -5.583,4.773 -5.908,12.262 -0.744,18.488 6.503,7.842 13.106,15.605 19.515,23.524 1.041,1.285 1.84,3.199 1.844,4.825 0.1,42.603 0.079,85.207 0.079,127.81 v 2.817 h -62.746 v -4.134 c 10e-4,-23.523 0.023,-47.046 -0.011,-70.57 -0.009,-5.953 -3.219,-10.418 -8.571,-12.255 -4.982,-1.709 -10.739,-0.363 -13.617,4.092 -1.661,2.572 -2.736,6.011 -2.765,9.073 -0.224,23.129 -0.123,46.262 -0.123,69.393 z"
         style="fill:#ffffff;fill-opacity:1;fill-rule:nonzero;stroke:none"
         id="path22"
         inkscape:connector-curvature="0" />
    </g>
  </g>
</svg>
