<?xml version="1.0" encoding="UTF-8" standalone="no"?>
<!-- Created with Inkscape (http://www.inkscape.org/) -->

<svg
   xmlns:dc="http://purl.org/dc/elements/1.1/"
   xmlns:cc="http://creativecommons.org/ns#"
   xmlns:rdf="http://www.w3.org/1999/02/22-rdf-syntax-ns#"
   xmlns:svg="http://www.w3.org/2000/svg"
   xmlns="http://www.w3.org/2000/svg"
   xmlns:sodipodi="http://sodipodi.sourceforge.net/DTD/sodipodi-0.dtd"
   xmlns:inkscape="http://www.inkscape.org/namespaces/inkscape"
   width="17.841829mm"
   height="19.068081mm"
   viewBox="0 0 17.841829 19.068081"
   version="1.1"
   id="svg15951"
   inkscape:version="0.92.5 (2060ec1f9f, 2020-04-08)"
   sodipodi:docname="socio-economic.svg">
  <defs
     id="defs15945" />
  <sodipodi:namedview
     id="base"
     pagecolor="#ffffff"
     bordercolor="#666666"
     borderopacity="1.0"
     inkscape:pageopacity="0.0"
     inkscape:pageshadow="2"
     inkscape:zoom="0.35"
     inkscape:cx="440.8552"
     inkscape:cy="178.88988"
     inkscape:document-units="mm"
     inkscape:current-layer="layer1"
     showgrid="false"
     fit-margin-top="0"
     fit-margin-left="0"
     fit-margin-right="0"
     fit-margin-bottom="0"
     inkscape:window-width="1920"
     inkscape:window-height="960"
     inkscape:window-x="0"
     inkscape:window-y="27"
     inkscape:window-maximized="1" />
  <metadata
     id="metadata15948">
    <rdf:RDF>
      <cc:Work
         rdf:about="">
        <dc:format>image/svg+xml</dc:format>
        <dc:type
           rdf:resource="http://purl.org/dc/dcmitype/StillImage" />
        <dc:title></dc:title>
      </cc:Work>
    </rdf:RDF>
  </metadata>
  <g
     inkscape:label="Layer 1"
     inkscape:groupmode="layer"
     id="layer1"
     transform="translate(189.59234,-177.09653)">
    <path
       inkscape:connector-curvature="0"
       style="fill:#ffffff;fill-opacity:1;fill-rule:nonzero;stroke:none;stroke-width:0.35277778"
       d="m -174.56396,191.29589 c -0.46302,-0.004 -0.82682,0.3514 -0.83234,0.80891 -0.004,0.45475 0.35554,0.8282 0.80891,0.83922 0.44511,0.01 0.82545,-0.36242 0.83096,-0.81579 0.005,-0.46027 -0.35278,-0.82821 -0.80753,-0.83234 m -12.19288,0 c -0.46027,-0.001 -0.82407,0.35691 -0.82545,0.81442 -0.003,0.45475 0.36105,0.8282 0.81304,0.83371 0.44925,0.004 0.82407,-0.36931 0.82545,-0.82131 0.001,-0.46026 -0.35829,-0.82544 -0.81304,-0.82682 m 5.26686,3.26595 c 0.006,0.45337 0.38034,0.82545 0.8282,0.81993 0.452,-0.007 0.8158,-0.38171 0.81304,-0.83509 -0.006,-0.45751 -0.37069,-0.81718 -0.8282,-0.81304 -0.45751,0.003 -0.81855,0.37069 -0.81304,0.8282 m 0.82544,-16.67151 c -0.45888,-0.001 -0.82406,0.35967 -0.82544,0.8158 -0.003,0.45338 0.36518,0.8282 0.8158,0.83234 0.44786,0.003 0.82269,-0.36932 0.82544,-0.82269 0.003,-0.45751 -0.36104,-0.82407 -0.8158,-0.82545 m -5.27926,2.86357 c 0.006,-0.45476 -0.35691,-0.83234 -0.80753,-0.83923 -0.45062,-0.007 -0.82407,0.35967 -0.83096,0.81442 -0.008,0.45751 0.3514,0.82821 0.80753,0.83372 0.45889,0.005 0.82683,-0.35278 0.83096,-0.80891 m 12.18875,-0.0138 c -0.003,-0.45475 -0.37345,-0.82682 -0.82131,-0.82544 -0.45338,0.003 -0.81856,0.37207 -0.81994,0.8282 0,0.45613 0.36243,0.81855 0.82132,0.81993 0.45475,0 0.8213,-0.36656 0.81993,-0.82269 m 1.21818,5.68303 c -0.004,-0.45888 -0.36931,-0.81855 -0.82544,-0.81442 -0.46027,0.004 -0.81718,0.36656 -0.8158,0.82545 0.003,0.45751 0.36794,0.81855 0.82544,0.81579 0.45752,-0.003 0.81994,-0.36931 0.8158,-0.82682 m -14.62512,0.01 c 0.001,-0.45751 -0.35691,-0.82131 -0.81579,-0.82407 -0.45889,-0.003 -0.82269,0.3583 -0.82407,0.8158 -0.001,0.45889 0.35691,0.82132 0.8158,0.82545 0.45751,0.003 0.82268,-0.35967 0.82406,-0.81718 m 5.25584,-1.03766 c 0.01,0.20257 -0.004,0.39825 0.0345,0.58153 0.0965,0.44786 0.51952,0.77859 1.03215,0.85438 0.6587,0.0992 1.48415,-0.39687 1.39871,-1.21405 -0.0138,-0.14469 -0.001,-0.29214 -0.001,-0.43683 0,-0.57465 -0.29214,-0.97152 -0.84336,-1.1424 -0.66973,-0.2067 -1.43316,0.17226 -1.58199,0.8034 -0.0441,0.1819 -0.0289,0.37758 -0.0386,0.55397 m 3.28111,3.92741 c 0.15985,-0.6463 -0.20809,-0.99357 -0.70831,-1.28158 -1.07763,-0.62011 -2.0836,-0.50849 -3.10335,0.29215 -0.1943,0.15434 -0.30179,0.34451 -0.2825,0.60909 0.0193,0.28388 0.008,0.57051 0.003,0.85576 -0.003,0.11713 0.0413,0.18328 0.14608,0.23565 1.16306,0.58842 2.34128,0.61736 3.54707,0.13091 0.30592,-0.12402 0.46715,-0.29214 0.40101,-0.63252 -0.0138,-0.0675 -0.003,-0.14056 -0.003,-0.20946 m 0.78548,-0.007 c 0.93153,-0.7896 1.58197,-2.47494 1.05418,-4.12169 -0.56224,-1.75425 -2.2779,-2.95038 -4.08037,-2.83738 -1.88792,0.11713 -3.43683,1.45658 -3.80339,3.27146 -0.31557,1.56545 0.40928,3.10058 1.19476,3.69039 -0.23151,-1.20855 0.56224,-1.71429 1.45245,-2.17179 -0.31144,-0.27285 -0.56086,-0.58016 -0.60634,-0.96463 -0.0551,-0.46164 -0.0882,-0.94258 -0.0248,-1.39871 0.11852,-0.84887 0.85577,-1.47726 1.7446,-1.58061 0.87092,-0.1006 1.75149,0.38172 2.10289,1.13964 0.17501,0.37896 0.13367,0.77859 0.15572,1.17547 0.0331,0.63527 -0.1571,1.17133 -0.63115,1.60265 -0.007,0.007 -0.005,0.0234 -0.011,0.0482 0.062,0.0331 0.13367,0.062 0.19293,0.10473 0.30041,0.21911 0.61598,0.42306 0.89435,0.66835 0.26182,0.23014 0.3886,0.54019 0.36656,0.90262 -0.01,0.14883 -0.001,0.29903 -0.001,0.47129 m 0.55259,-6.41615 c 0.41892,-0.4203 0.83647,-0.83509 1.24575,-1.26091 0.0358,-0.0372 0.0289,-0.1502 0.003,-0.21083 -0.41479,-0.92742 0.0661,-1.97611 1.04455,-2.23794 0.64079,-0.17088 1.20165,0.003 1.63297,0.50023 0.44374,0.51125 0.52228,1.1107 0.24392,1.72255 -0.27285,0.60082 -0.76481,0.92604 -1.42903,0.92879 -0.23978,0.001 -0.48369,-0.0772 -0.71658,-0.1502 -0.11437,-0.0358 -0.17777,-0.0303 -0.26183,0.0537 -0.3762,0.38585 -0.75792,0.76757 -1.14377,1.14515 -0.0937,0.0896 -0.0909,0.15159 -0.0193,0.25356 0.4768,0.67662 0.76206,1.42765 0.84749,2.25172 0.011,0.10748 0.0537,0.14607 0.15434,0.14056 0.051,-0.001 0.10198,-0.004 0.15297,0.001 0.36931,0.04 0.62149,-0.0152 0.81442,-0.43133 0.31281,-0.66973 1.13688,-0.93706 1.84657,-0.7152 0.7028,0.22186 1.15893,0.88608 1.11759,1.63022 -0.0413,0.74 -0.57189,1.35186 -1.29536,1.49242 -0.77032,0.1502 -1.53789,-0.27699 -1.81487,-1.02113 -0.0482,-0.12954 -0.10749,-0.17915 -0.24392,-0.17363 -0.18879,0.01 -0.38034,0.007 -0.57051,10e-4 -0.11161,-10e-4 -0.15158,0.0413 -0.1626,0.15434 -0.0882,0.81717 -0.36932,1.56407 -0.84336,2.2338 -0.0786,0.11162 -0.073,0.17501 0.0248,0.26871 0.37758,0.36794 0.75103,0.73863 1.11621,1.11759 0.1006,0.10474 0.17639,0.11714 0.30868,0.0579 0.84611,-0.38034 1.82039,0.0166 2.15801,0.87092 0.33486,0.84612 -0.0992,1.81625 -0.95912,2.1084 -0.65732,0.22462 -1.2485,0.0799 -1.71979,-0.42444 -0.47404,-0.50987 -0.54846,-1.11207 -0.28525,-1.7501 0.0551,-0.13367 0.0482,-0.20671 -0.0551,-0.30731 -0.40239,-0.39412 -0.79513,-0.79788 -1.1989,-1.20578 -0.11988,0.1006 -0.2191,0.18879 -0.32246,0.2701 -0.73587,0.58842 -1.57096,0.94257 -2.51078,1.04317 -0.11576,0.0124 -0.15021,0.0593 -0.14883,0.16674 0.003,0.47543 0.004,0.95223 -0.001,1.42765 -0.003,0.12678 0.0689,0.15296 0.16537,0.19017 0.67248,0.24942 1.08727,0.88608 1.0473,1.60266 -0.04,0.70969 -0.514,1.28984 -1.20164,1.46899 -0.82269,0.21359 -1.67294,-0.25356 -1.93615,-1.06247 -0.26045,-0.80202 0.14469,-1.68121 0.93155,-1.98437 0.16399,-0.0648 0.21911,-0.14056 0.21498,-0.3142 -0.0138,-0.40514 -0.0152,-0.81304 0,-1.21818 0.005,-0.19568 -0.0413,-0.26321 -0.25218,-0.28939 -0.96049,-0.12265 -1.81212,-0.5085 -2.54662,-1.14377 -0.0482,-0.0413 -0.0965,-0.0813 -0.14469,-0.12265 -0.005,-0.004 -0.011,-0.004 -0.04,-0.0152 -0.073,0.0689 -0.15434,0.1447 -0.23289,0.22324 -0.31971,0.31833 -0.6339,0.64079 -0.95774,0.95361 -0.10473,0.10059 -0.12953,0.17638 -0.0648,0.32246 0.47129,1.04593 -0.26872,2.2214 -1.41662,2.26825 -0.79102,0.0317 -1.5393,-0.58427 -1.64127,-1.35322 -0.11576,-0.86403 0.40101,-1.64262 1.21543,-1.82866 0.36518,-0.0827 0.72071,-0.0538 1.05695,0.11025 0.10749,0.0524 0.17639,0.0482 0.26321,-0.0413 0.3762,-0.38585 0.75654,-0.76895 1.14515,-1.14378 0.10197,-0.0978 0.0896,-0.1626 0.0152,-0.26871 -0.47127,-0.67248 -0.75377,-1.41937 -0.84059,-2.23655 -0.0124,-0.11576 -0.0606,-0.15021 -0.16812,-0.14883 -0.18327,0.005 -0.36793,0.01 -0.55121,0 -0.14056,-0.008 -0.20808,0.0358 -0.26045,0.17639 -0.24942,0.67661 -0.89021,1.08038 -1.60817,1.03628 -0.70831,-0.0441 -1.28158,-0.52365 -1.45797,-1.2168 -0.2067,-0.81856 0.25632,-1.65365 1.06385,-1.91961 0.79651,-0.26045 1.66743,0.12954 1.97611,0.91088 0.0758,0.19431 0.17363,0.24805 0.36104,0.23151 0.1571,-0.0124 0.31695,-0.006 0.47543,-0.001 0.10473,0.003 0.15847,-0.0275 0.16949,-0.14607 0.0854,-0.82407 0.37208,-1.5751 0.84888,-2.25171 0.0758,-0.10611 0.0661,-0.16675 -0.0234,-0.25356 -0.38585,-0.37759 -0.76756,-0.75793 -1.14377,-1.14378 -0.0854,-0.0882 -0.15296,-0.0951 -0.2632,-0.0441 -0.60221,0.27974 -1.29261,0.17225 -1.77078,-0.26734 -0.47818,-0.44097 -0.65457,-1.11621 -0.42995,-1.72393 0.24529,-0.66146 0.73863,-1.01974 1.43316,-1.07487 1.18236,-0.0923 2.04501,1.1672 1.55305,2.26274 -0.0648,0.14469 -0.0441,0.21911 0.062,0.32246 0.39825,0.38999 0.78686,0.78962 1.1796,1.18374 0.2632,-0.19569 0.50298,-0.39274 0.76068,-0.56224 0.62976,-0.41342 1.32567,-0.65595 2.07532,-0.73725 0.11024,-0.0124 0.1571,-0.0482 0.15572,-0.16124 -0.004,-0.34312 -0.007,-0.68488 0.001,-1.02801 0.003,-0.1254 -0.0703,-0.15572 -0.16399,-0.19292 -0.59393,-0.23289 -0.95636,-0.66146 -1.03628,-1.29536 -0.0854,-0.67937 0.17225,-1.22232 0.75517,-1.5875 0.79788,-0.49885 1.85759,-0.18879 2.27514,0.65043 0.42305,0.85163 0.0317,1.88516 -0.85577,2.22002 -0.15709,0.0593 -0.19843,0.13505 -0.1943,0.28801 0.008,0.31006 0.003,0.6215 0.003,0.93156 0,0.0868 0.003,0.15985 0.12402,0.17225 1.07625,0.11162 2.0078,0.54846 2.80569,1.27468 0.008,0.008 0.0221,0.011 0.0606,0.0262"
       id="path42" />
  </g>
</svg>
