<?xml version="1.0" encoding="UTF-8" standalone="no"?>
<!-- Generator: Adobe Illustrator 25.0.0, SVG Export Plug-In . SVG Version: 6.00 Build 0)  -->

<svg
   version="1.1"
   id="Layer_1"
   x="0px"
   y="0px"
   viewBox="0 0 852.75001 209.70998"
   xml:space="preserve"
   sodipodi:docname="spectre-logo.svg"
   width="852.75"
   height="209.70998"
   inkscape:version="1.1 (ce6663b3b7, 2021-05-25)"
   xmlns:inkscape="http://www.inkscape.org/namespaces/inkscape"
   xmlns:sodipodi="http://sodipodi.sourceforge.net/DTD/sodipodi-0.dtd"
   xmlns="http://www.w3.org/2000/svg"
   xmlns:svg="http://www.w3.org/2000/svg"><defs
   id="defs33" /><sodipodi:namedview
   id="namedview31"
   pagecolor="#ffffff"
   bordercolor="#666666"
   borderopacity="1.0"
   inkscape:pageshadow="2"
   inkscape:pageopacity="0.0"
   inkscape:pagecheckerboard="0"
   showgrid="false"
   fit-margin-top="0"
   fit-margin-left="0"
   fit-margin-right="0"
   fit-margin-bottom="0"
   inkscape:zoom="0.12319126"
   inkscape:cx="-68.998402"
   inkscape:cy="-125.82061"
   inkscape:window-width="1920"
   inkscape:window-height="960"
   inkscape:window-x="0"
   inkscape:window-y="27"
   inkscape:window-maximized="1"
   inkscape:current-layer="Layer_1" />
<style
   type="text/css"
   id="style2">
	.st0{fill:#FFFFFF;}
	.st1{fill:#98CDEB;}
	.st2{fill:#10A9DE;}
</style>
<path
   class="st0"
   d="m 56.22,161.54998 c -10.44,0 -20.64,-1.66 -30.6,-4.98 -9.96,-3.32 -18.5,-8.06 -25.62,-14.23 l 11.86,-19.92 c 7.59,5.38 14.98,9.45 22.18,12.22 7.19,2.77 14.35,4.15 21.47,4.15 6.32,0 11.3,-1.19 14.94,-3.56 3.64,-2.37 5.46,-5.77 5.46,-10.2 0,-4.42 -2.13,-7.67 -6.4,-9.73 -4.27,-2.05 -11.23,-4.43 -20.87,-7.12 -8.06,-2.21 -14.94,-4.35 -20.64,-6.4 -5.69,-2.049998 -10.28,-4.389998 -13.76,-6.999998 -3.48,-2.61 -6.01,-5.61 -7.59,-9.01 -1.58,-3.4 -2.37,-7.47 -2.37,-12.22 0,-6.32 1.22,-12.02 3.68,-17.08 2.45,-5.06 5.89,-9.37 10.32,-12.93 4.43,-3.56 9.61,-6.29 15.54,-8.18 5.93,-1.9 12.37,-2.85 19.33,-2.85 9.33,0 18.06,1.35 26.21,4.03 8.14,2.69 15.61,7.04 22.42,13.05 l -12.81,19.21 c -6.33,-4.74 -12.45,-8.22 -18.38,-10.44 -5.93,-2.21 -11.82,-3.32 -17.67,-3.32 -5.38,0 -9.88,1.11 -13.52,3.32 -3.64,2.22 -5.46,5.77 -5.46,10.67 0,2.22 0.43,4.03 1.3,5.46 0.87,1.42 2.25,2.69 4.15,3.8 1.9,1.11 4.39,2.18 7.47,3.2 3.08,1.03 6.92,2.1 11.5,3.2 8.54,2.22 15.85,4.43 21.94,6.64 6.09,2.22 11.07,4.74 14.94,7.59 3.87,2.849998 6.72,6.129998 8.54,9.839998 1.82,3.72 2.73,8.18 2.73,13.4 0,12.18 -4.51,21.79 -13.52,28.82 -9.01,7.05 -21.27,10.57 -36.77,10.57 z"
   id="path4" />
<path
   class="st0"
   d="m 201.62,161.54998 c -9.81,0 -18.35,-2.18 -25.62,-6.52 -7.28,-4.35 -12.97,-10.24 -17.08,-17.67 v 72.35 H 127.14 V 34.879982 h 27.75 v 21.35 c 4.58,-7.27 10.51,-13 17.79,-17.2 7.27,-4.19 15.66,-6.29 25.14,-6.29 8.38,0 16.13,1.7 23.25,5.1 7.12,3.4 13.24,7.99 18.38,13.76 5.14,5.77 9.17,12.57 12.1,20.4 2.92,7.83 4.39,16.09 4.39,24.79 0,9.009998 -1.35,17.479998 -4.03,25.379998 -2.69,7.91 -6.45,14.79 -11.27,20.64 -4.83,5.85 -10.56,10.44 -17.2,13.76 -6.63,3.32 -13.91,4.98 -21.82,4.98 z m -10.67,-27.04 c 4.74,0 9.13,-1.03 13.16,-3.08 4.03,-2.05 7.47,-4.82 10.32,-8.3 2.85,-3.48 5.06,-7.51 6.64,-12.1 1.58,-4.58 2.37,-9.33 2.37,-14.229998 0,-5.22 -0.87,-10.08 -2.61,-14.59 -1.74,-4.51 -4.15,-8.42 -7.23,-11.74 -3.08,-3.32 -6.72,-5.93 -10.91,-7.83 -4.19,-1.9 -8.74,-2.85 -13.64,-2.85 -3.01,0 -6.09,0.52 -9.25,1.54 -3.17,1.03 -6.09,2.49 -8.78,4.39 -2.69,1.9 -5.1,4.11 -7.23,6.64 -2.13,2.53 -3.76,5.3 -4.86,8.3 v 29.179998 c 2.85,7.12 7.19,13.01 13.05,17.67 5.84,4.67 12.17,7 18.97,7 z"
   id="path6" />
<path
   class="st0"
   d="m 335.17,161.54998 c -9.96,0 -18.98,-1.7 -27.04,-5.1 -8.06,-3.4 -14.94,-8.02 -20.64,-13.88 -5.69,-5.85 -10.08,-12.65 -13.16,-20.4 -3.08,-7.75 -4.63,-15.89 -4.63,-24.429998 0,-8.85 1.5,-17.2 4.51,-25.02 3,-7.83 7.35,-14.71 13.05,-20.64 5.69,-5.93 12.61,-10.63 20.76,-14.11 8.14,-3.48 17.27,-5.22 27.4,-5.22 10.12,0 19.17,1.74 27.16,5.22 7.98,3.48 14.78,8.15 20.4,13.99 5.61,5.85 9.88,12.65 12.81,20.4 2.92,7.75 4.39,15.81 4.39,24.19 0,2.06 -0.04,4.029998 -0.12,5.929998 -0.08,1.9 -0.28,3.48 -0.59,4.74 H 303.4 c 0.47,4.9 1.66,9.25 3.56,13.05 1.9,3.8 4.35,7.04 7.35,9.73 3,2.69 6.4,4.74 10.2,6.17 3.8,1.42 7.75,2.13 11.86,2.13 6.32,0 12.29,-1.54 17.91,-4.63 5.61,-3.08 9.45,-7.15 11.5,-12.22 l 27.28,7.59 c -4.59,9.49 -11.9,17.28 -21.94,23.36 -10.06,6.1 -22.04,9.15 -35.95,9.15 z m 32.25,-74.959998 c -0.79,-9.33 -4.23,-16.8 -10.32,-22.42 -6.09,-5.61 -13.48,-8.42 -22.18,-8.42 -4.27,0 -8.26,0.75 -11.98,2.25 -3.72,1.5 -7,3.6 -9.84,6.29 -2.85,2.69 -5.18,5.93 -7,9.73 -1.82,3.79 -2.89,7.99 -3.2,12.57 z"
   id="path8" />
<path
   class="st0"
   d="m 411.78,97.029982 c 0,-8.7 1.5,-16.92 4.51,-24.67 3,-7.75 7.35,-14.55 13.05,-20.4 5.69,-5.85 12.57,-10.51 20.64,-13.99 8.06,-3.48 17.16,-5.22 27.28,-5.22 13.6,0 25.18,2.93 34.75,8.78 9.57,5.85 16.72,13.52 21.47,23.01 l -31.07,9.49 c -2.69,-4.58 -6.25,-8.1 -10.67,-10.56 -4.43,-2.45 -9.33,-3.68 -14.71,-3.68 -4.59,0 -8.86,0.91 -12.81,2.73 -3.95,1.82 -7.39,4.35 -10.32,7.59 -2.93,3.24 -5.22,7.16 -6.88,11.74 -1.66,4.59 -2.49,9.65 -2.49,15.18 0,5.539998 0.87,10.599998 2.61,15.179998 1.74,4.59 4.07,8.54 7,11.86 2.92,3.32 6.36,5.89 10.32,7.71 3.95,1.82 8.14,2.73 12.57,2.73 5.69,0 10.95,-1.42 15.77,-4.27 4.82,-2.85 8.18,-6.32 10.08,-10.44 l 31.07,9.49 c -4.27,9.49 -11.31,17.24 -21.11,23.25 -9.81,6.01 -21.58,9.01 -35.34,9.01 -10.12,0 -19.21,-1.74 -27.28,-5.22 -8.06,-3.48 -14.94,-8.18 -20.64,-14.11 -5.69,-5.93 -10.08,-12.81 -13.16,-20.64 -3.08,-7.83 -4.64,-16.01 -4.64,-24.549998 z"
   id="path10" />
<path
   class="st0"
   d="m 627.87,152.76998 c -4.27,1.89 -9.49,3.79 -15.65,5.69 -6.17,1.9 -12.66,2.85 -19.45,2.85 -4.43,0 -8.58,-0.55 -12.45,-1.66 -3.87,-1.1 -7.27,-2.88 -10.2,-5.34 -2.93,-2.45 -5.26,-5.61 -7,-9.49 -1.75,-3.87 -2.61,-8.57 -2.61,-14.11 V 65.259982 l 31.79,0.04 v 54.739998 c 0,4.43 1.14,7.55 3.44,9.37 2.29,1.82 5.1,2.73 8.42,2.73 3.32,0 6.56,-0.55 9.72,-1.66 3.16,-1.1 5.69,-2.05 7.59,-2.85 z"
   id="path12" />
<path
   class="st0"
   d="m 718.48,62.399982 c -9.65,0.16 -18.26,2.02 -25.85,5.57 -7.59,3.56 -13.05,8.9 -16.37,16.01 V 159.16998 H 644.48 V 31.619982 h 29.18 v 29.83 c 2.21,-4.27 4.82,-8.1 7.83,-11.5 3,-3.4 6.25,-6.36 9.73,-8.9 3.48,-2.53 7,-4.47 10.56,-5.81 3.56,-1.34 7,-2.02 10.32,-2.02 1.74,0 3.04,0 3.91,0 0.87,0 1.7,0.08 2.49,0.24 v 28.94 z"
   id="path14" />
<path
   class="st0"
   d="m 787.74,161.54998 c -9.96,0 -18.98,-1.7 -27.04,-5.1 -8.06,-3.4 -14.94,-8.02 -20.64,-13.88 -5.69,-5.85 -10.08,-12.65 -13.16,-20.4 -3.08,-7.75 -4.63,-15.89 -4.63,-24.429998 0,-8.85 1.5,-17.2 4.51,-25.02 3,-7.83 7.35,-14.71 13.05,-20.64 5.69,-5.93 12.61,-10.63 20.76,-14.11 8.14,-3.48 17.27,-5.22 27.4,-5.22 10.12,0 19.17,1.74 27.16,5.22 7.98,3.48 14.78,8.15 20.4,13.99 5.61,5.85 9.88,12.65 12.81,20.4 2.92,7.75 4.39,15.81 4.39,24.19 0,2.06 -0.04,4.029998 -0.12,5.929998 -0.08,1.9 -0.28,3.48 -0.59,4.74 h -96.07 c 0.47,4.9 1.66,9.25 3.56,13.05 1.9,3.8 4.35,7.04 7.35,9.73 3,2.69 6.4,4.74 10.2,6.17 3.8,1.42 7.75,2.13 11.86,2.13 6.32,0 12.29,-1.54 17.91,-4.63 5.61,-3.08 9.45,-7.15 11.5,-12.22 l 27.28,7.59 c -4.59,9.49 -11.9,17.28 -21.94,23.36 -10.06,6.1 -22.04,9.15 -35.95,9.15 z M 820,86.589982 c -0.79,-9.33 -4.23,-16.8 -10.32,-22.42 -6.09,-5.61 -13.48,-8.42 -22.18,-8.42 -4.27,0 -8.27,0.75 -11.98,2.25 -3.72,1.5 -7,3.6 -9.84,6.29 -2.85,2.69 -5.18,5.93 -7,9.73 -1.82,3.79 -2.89,7.99 -3.2,12.57 z"
   id="path16" />
<polygon
   class="st0"
   points="1094.13,466.12 1094.13,459.49 1132.7,459.49 1132.7,493.88 1126.06,493.88 1126.06,466.12 "
   id="polygon18"
   transform="translate(-533.63,-435.15002)" />
<rect
   x="560.49994"
   y="0"
   class="st1"
   width="63.860001"
   height="13.56"
   id="rect20" />
<rect
   x="560.49994"
   y="13.559998"
   class="st2"
   width="50.299999"
   height="10.78"
   id="rect22" />
<rect
   x="599.07001"
   y="22.330017"
   class="st2"
   width="11.73"
   height="36.400002"
   id="rect24" />
<rect
   x="5.7058105"
   y="-624.35858"
   transform="rotate(90)"
   class="st1"
   width="53.029999"
   height="13.56"
   id="rect26" />

</svg>
