<?xml version="1.0" standalone="no"?>
<!DOCTYPE svg PUBLIC "-//W3C//DTD SVG 20010904//EN"
 "http://www.w3.org/TR/2001/REC-SVG-20010904/DTD/svg10.dtd">
<svg version="1.0" xmlns="http://www.w3.org/2000/svg"
 width="1024.000000pt" height="1024.000000pt" viewBox="0 0 1024.000000 1024.000000"
 preserveAspectRatio="xMidYMid meet">
<metadata>
Created by potrace 1.14, written by Peter Selinger 2001-2017
</metadata>
<g transform="translate(0.000000,1024.000000) scale(0.100000,-0.100000)"
fill="#000000" stroke="none">
<path d="M0 7347 l0 -2484 2543 -1 c1398 0 2550 -1 2560 -1 10 -1 16 -5 12
-10 -3 -5 -1 -12 5 -16 7 -4 7 -12 0 -25 -7 -13 -7 -21 0 -25 7 -5 8 -11 1
-19 -6 -7 -6 -17 -1 -26 5 -9 5 -19 -1 -26 -7 -8 -6 -14 1 -19 7 -4 7 -12 0
-25 -7 -13 -7 -21 0 -25 7 -4 7 -12 0 -25 -7 -13 -7 -21 0 -25 7 -4 7 -13 0
-26 -8 -13 -7 -19 0 -19 8 0 8 -6 0 -20 -7 -13 -7 -20 -1 -20 7 0 7 -8 1 -24
-5 -15 -5 -27 2 -34 6 -6 6 -12 -1 -16 -8 -5 -8 -13 -1 -26 7 -13 7 -21 0 -25
-7 -4 -7 -13 0 -26 8 -13 7 -19 0 -19 -7 0 -8 -6 0 -19 7 -14 7 -22 0 -26 -8
-5 -8 -11 0 -20 7 -9 8 -15 1 -19 -7 -5 -7 -15 -1 -31 6 -16 6 -25 0 -25 -6 0
-6 -10 0 -26 7 -16 7 -23 0 -19 -7 4 -7 -3 0 -19 6 -16 6 -26 0 -26 -6 0 -6
-10 0 -26 7 -16 7 -23 0 -19 -7 4 -7 -3 0 -19 5 -14 6 -26 2 -26 -4 0 -7 -11
-7 -25 0 -14 4 -25 8 -25 4 0 3 -9 -3 -19 -7 -13 -7 -22 0 -26 7 -4 7 -12 0
-25 -7 -13 -7 -21 0 -25 7 -4 7 -13 0 -26 -8 -13 -7 -19 0 -19 8 0 8 -6 0 -20
-7 -13 -7 -20 -1 -20 7 0 7 -9 1 -25 -6 -15 -6 -26 0 -30 7 -4 6 -13 0 -25 -7
-13 -7 -21 0 -25 7 -4 7 -13 0 -26 -7 -12 -7 -19 -1 -19 7 0 7 -9 1 -25 -6
-16 -6 -25 1 -25 6 0 6 -7 -1 -20 -7 -13 -7 -20 -1 -20 7 0 7 -8 1 -24 -5 -15
-5 -27 2 -34 6 -6 6 -12 -1 -16 -8 -5 -8 -13 -1 -26 7 -13 7 -21 0 -25 -7 -4
-7 -13 0 -26 8 -13 7 -19 0 -19 -7 0 -8 -6 0 -19 7 -14 7 -22 0 -26 -8 -5 -8
-11 0 -20 7 -9 8 -15 1 -19 -7 -5 -7 -15 -1 -31 6 -16 6 -25 0 -25 -6 0 -6
-10 0 -26 7 -16 7 -23 0 -19 -7 4 -7 -3 0 -19 6 -16 6 -26 0 -26 -6 0 -6 -10
0 -26 7 -16 7 -23 0 -19 -7 4 -7 -3 0 -19 5 -14 6 -26 2 -26 -4 0 -7 -11 -7
-25 0 -14 4 -25 8 -25 4 0 3 -9 -3 -19 -7 -13 -7 -22 0 -26 7 -4 7 -12 0 -25
-7 -13 -7 -21 0 -25 7 -4 7 -13 0 -26 -8 -13 -7 -19 0 -19 8 0 8 -6 0 -20 -7
-13 -7 -20 -1 -20 7 0 7 -9 1 -25 -6 -15 -6 -26 0 -30 7 -4 6 -13 0 -25 -7
-13 -7 -21 0 -25 7 -4 7 -13 0 -26 -7 -12 -7 -19 -1 -19 7 0 7 -9 1 -25 -6
-16 -6 -25 1 -25 6 0 6 -7 -1 -20 -7 -13 -7 -20 -1 -20 7 0 7 -8 1 -24 -5 -15
-5 -27 2 -34 6 -6 6 -12 -1 -16 -8 -5 -8 -13 -1 -26 7 -13 7 -21 0 -25 -7 -4
-7 -13 0 -26 8 -13 7 -19 0 -19 -7 0 -8 -6 0 -19 7 -14 7 -22 0 -26 -8 -5 -8
-11 0 -20 7 -9 8 -15 1 -19 -7 -5 -7 -15 -1 -31 6 -16 6 -25 0 -25 -6 0 -6
-10 0 -26 7 -16 7 -23 0 -19 -7 4 -7 -3 0 -19 6 -16 6 -26 0 -26 -6 0 -6 -10
0 -26 7 -16 7 -23 0 -19 -7 4 -7 -3 0 -19 5 -14 6 -26 2 -26 -4 0 -7 -11 -7
-25 0 -14 4 -25 8 -25 4 0 3 -9 -3 -19 -7 -13 -7 -22 0 -26 7 -4 7 -12 0 -25
-7 -13 -7 -21 0 -25 7 -4 7 -13 0 -26 -8 -13 -7 -19 0 -19 8 0 8 -6 0 -20 -7
-13 -7 -20 -1 -20 7 0 7 -9 1 -25 -6 -15 -6 -26 0 -30 7 -4 6 -13 0 -25 -7
-13 -7 -21 0 -25 7 -4 7 -13 0 -26 -7 -12 -7 -19 -1 -19 7 0 7 -9 1 -25 -6
-16 -6 -25 1 -25 6 0 6 -7 -1 -20 -7 -13 -7 -20 -1 -20 7 0 7 -8 1 -24 -5 -15
-5 -27 2 -34 6 -6 6 -12 -1 -16 -8 -5 -8 -13 -1 -26 7 -13 7 -21 0 -25 -7 -4
-7 -13 0 -26 8 -13 7 -19 0 -19 -7 0 -8 -6 0 -19 7 -14 7 -22 0 -26 -8 -5 -8
-11 0 -20 7 -9 8 -15 1 -19 -7 -5 -7 -15 -1 -31 6 -16 6 -25 0 -25 -6 0 -6
-10 0 -26 7 -16 7 -23 0 -19 -7 4 -7 -3 0 -19 6 -16 6 -26 0 -26 -6 0 -6 -10
0 -26 7 -16 7 -23 0 -19 -7 4 -7 -3 0 -19 5 -14 6 -26 2 -26 -4 0 -7 -11 -7
-25 0 -14 4 -25 8 -25 4 0 3 -9 -3 -19 -7 -13 -7 -22 0 -26 7 -4 7 -12 0 -25
-7 -13 -7 -21 0 -25 7 -4 7 -13 0 -26 -8 -13 -7 -19 0 -19 8 0 8 -6 0 -20 -7
-13 -7 -20 -1 -20 7 0 7 -9 1 -25 -6 -15 -6 -26 0 -30 7 -4 6 -13 0 -25 -7
-13 -7 -21 0 -25 7 -4 7 -13 0 -26 -7 -12 -7 -19 -1 -19 7 0 7 -9 1 -25 -6
-16 -6 -25 1 -25 6 0 6 -7 -1 -20 -7 -13 -7 -20 -1 -20 7 0 7 -8 1 -24 -5 -15
-5 -27 2 -34 6 -6 6 -12 -1 -16 -8 -5 -8 -13 -1 -26 7 -13 7 -21 0 -25 -7 -4
-7 -13 0 -26 8 -13 7 -19 0 -19 -7 0 -8 -6 0 -19 7 -14 7 -22 0 -26 -8 -5 -8
-11 -1 -19 6 -7 8 -16 4 -19 -3 -4 1146 -7 2555 -7 l2562 0 0 4710 0 4710
-5120 0 -5120 0 0 -2483z"/>
</g>
</svg>
