<?xml version="1.0" encoding="utf-8"?>
<!-- Generator: Adobe Illustrator 24.2.3, SVG Export Plug-In . SVG Version: 6.00 Build 0)  -->
<svg version="1.1" id="Layer_1" xmlns="http://www.w3.org/2000/svg" xmlns:xlink="http://www.w3.org/1999/xlink" x="0px" y="0px"
	 viewBox="0 0 434.4 462.9" style="enable-background:new 0 0 434.4 462.9;" xml:space="preserve">
<g>
	<path d="M265.7,425.5H169c-6.2,0-11.2-5-11.2-11.2c0-6.2,5-11.2,11.2-11.2h96.7c6.2,0,11.2,5,11.2,11.2
		C276.9,420.5,271.9,425.5,265.7,425.5z M256.8,451.7c0-6.2-5-11.2-11.2-11.2h-56.5c-6.2,0-11.2,5-11.2,11.2c0,6.2,5,11.2,11.2,11.2
		h56.1c6.2,0,11.2-5,11.2-11.2H256.8z M228.4,53.1V11.2c0-6.2-5-11.2-11.2-11.2S206,5,206,11.2v41.9c0,6.2,5,11.2,11.2,11.2
		S228.4,59.3,228.4,53.1z M333.8,87.5l20.8-36.3c3.1-5.4,1.3-12.2-4.1-15.3c-5.4-3.1-12.2-1.3-15.3,4.1l-20.8,36.3
		c-2.9,5.3-1,11.9,4.2,14.9c1.7,1,3.6,1.5,5.5,1.5C328,92.8,331.7,90.8,333.8,87.5L333.8,87.5z M392.1,166.1l36-21
		c2.8-1.4,4.9-3.8,5.8-6.8c0.9-3,0.5-6.2-1-8.9c-1.6-2.7-4.2-4.6-7.2-5.3c-3-0.7-6.2-0.1-8.8,1.6l-36.1,21
		c-5.1,3.2-6.7,9.9-3.7,15.1C380.2,167.1,386.8,169,392.1,166.1L392.1,166.1z M57.6,162.1c1.5-2.6,1.9-5.6,1.2-8.5
		c-0.8-2.9-2.6-5.3-5.2-6.8l-36.1-21h0c-2.6-1.7-5.8-2.3-8.8-1.6c-3,0.7-5.6,2.6-7.2,5.3c-1.6,2.7-1.9,5.9-1,8.9
		c0.9,3,3,5.4,5.8,6.8l36,21c1.7,1,3.7,1.5,5.7,1.5C51.9,167.6,55.6,165.5,57.6,162.1L57.6,162.1z M115.8,91.6L115.8,91.6
		c5.2-3,7.1-9.6,4.2-14.9L99.1,40c-1.4-2.7-3.8-4.8-6.8-5.6c-2.9-0.9-6.1-0.5-8.8,1c-2.7,1.5-4.6,4.1-5.3,7c-0.7,3-0.2,6.1,1.4,8.7
		l20.8,36.3c2,3.5,5.7,5.6,9.7,5.6C112.2,93.1,114.1,92.6,115.8,91.6L115.8,91.6z M355.3,223.3c-0.1,48-24.7,92.5-65.3,118
		c-4.9,8.9-7.5,18.9-7.5,29c-0.2,4.8-2.3,9.3-5.7,12.6c-3.5,3.3-8.1,5.2-12.8,5.2h-93c-4.8,0-9.4-1.9-12.8-5.2
		c-3.5-3.3-5.5-7.8-5.8-12.6c-0.1-10.2-2.8-20.3-7.9-29.1c-41.9-25.7-67.1-71.7-66.1-120.8c1-49.2,27.9-94.1,70.9-118.1
		c42.9-24,95.3-23.5,137.8,1.4C329.3,128.6,355.4,174.1,355.3,223.3L355.3,223.3z M318,223.3c-0.3-35.9-19.6-68.8-50.8-86.6
		c-31.1-17.8-69.4-17.6-100.4,0.4s-50.1,51.1-50.1,87c0,35.9,19,69,50,87c1.6,0.9,3,2.1,4.3,3.4c8.6,10.5,14.2,23,16.5,36.3H206
		v-52.3l-21.8-15.8h0c-2.4-1.7-4-4.4-4.5-7.3c-0.5-2.9,0.2-5.9,2-8.3c3.6-5,10.6-6.1,15.6-2.5l19.9,14.3l19.9-14.3
		c5-3.6,12-2.5,15.6,2.5c3.6,5,2.5,12-2.5,15.6l-21.8,15.6v52.3H247c2.2-13.3,7.9-25.8,16.4-36.3c1.2-1.3,2.7-2.5,4.3-3.4
		C298.7,292.6,317.9,259.3,318,223.3L318,223.3z"/>
</g>
</svg>
