<?xml version="1.0" encoding="utf-8"?>
<!-- Generator: Adobe Illustrator 22.0.0, SVG Export Plug-In . SVG Version: 6.00 Build 0)  -->
<svg version="1.1" id="Layer_1" xmlns="http://www.w3.org/2000/svg" xmlns:xlink="http://www.w3.org/1999/xlink" x="0px" y="0px"
	 viewBox="0 0 8.1 8.1" style="enable-background:new 0 0 8.1 8.1;" xml:space="preserve">
<style type="text/css">
	.st0{fill:#007090;}
</style>
<path class="st0" d="M0.9,7.6C0.7,7.5,0.6,7.5,0.5,7.4C0.4,7.2,0.5,7.1,0.6,6.9C0.7,6.8,0.8,6.7,1,6.5c1.9-1.9,3.9-3.9,5.8-5.8
	c0,0,0.1-0.1,0.1-0.1c0.2-0.1,0.4-0.1,0.5,0c0.1,0.1,0.2,0.3,0,0.5C7.4,1.2,7.3,1.4,7.2,1.5c-2,2-3.9,3.9-5.9,5.9
	C1.1,7.5,1,7.5,0.9,7.6"/>
<path class="st0" d="M6.4,8.1c-0.9,0-1.6-0.8-1.6-1.7c0-0.9,0.8-1.6,1.7-1.6c0.9,0,1.6,0.7,1.6,1.7C8.1,7.4,7.3,8.1,6.4,8.1
	 M7.3,6.4c0-0.5-0.4-0.9-0.8-0.9c-0.5,0-0.9,0.4-0.9,0.9c0,0.5,0.4,0.8,0.9,0.8C6.9,7.3,7.3,6.9,7.3,6.4"/>
<path class="st0" d="M1.6,3.3C0.7,3.3,0,2.6,0,1.6C0,0.7,0.7,0,1.7,0c0.9,0,1.6,0.7,1.6,1.6C3.3,2.6,2.6,3.3,1.6,3.3 M2.5,1.6
	c0-0.5-0.4-0.9-0.9-0.9c-0.5,0-0.9,0.4-0.8,0.9c0,0.5,0.4,0.8,0.9,0.8C2.1,2.5,2.5,2.1,2.5,1.6"/>
</svg>
