<?xml version="1.0" encoding="utf-8"?>
<!-- Generator: Adobe Illustrator 24.2.3, SVG Export Plug-In . SVG Version: 6.00 Build 0)  -->
<svg version="1.1" id="Layer_1" xmlns="http://www.w3.org/2000/svg" xmlns:xlink="http://www.w3.org/1999/xlink" x="0px" y="0px"
	 viewBox="0 0 521.4 411.6" style="enable-background:new 0 0 521.4 411.6;" xml:space="preserve">
<g>
	<path d="M487.8,67.2h-131V42c0-6.7-5.6-12.9-12.9-12.9c-6.7,0-12.9,5.6-12.9,12.9v25.2H201c-18.5,0-33.6,15.1-33.6,33.6V303
		c0,18.5,15.1,33.6,33.6,33.6h61.6L242.5,411h26.3l20.2-74.5h43.1V411h25.2v-73.9h42.6l20.2,74.5h26.3l-20.2-74.5h61.6
		c18.5,0,33.6-15.1,33.6-33.6l0-202.2C521.4,82.3,506.2,67.2,487.8,67.2L487.8,67.2z M504.6,303.5c0,9.5-7.8,16.8-16.8,16.8H201
		c-9.5,0-16.8-7.8-16.8-16.8V101.4c0-9.5,7.8-16.8,16.8-16.8h286.7c9.5,0,16.8,7.8,16.8,16.8V303.5z"/>
	<path d="M408.2,131.6c-1.1-2.2-3.4-2.8-5.6-2.2l-123.8,57.1c-2.2-6.2-6.7-11.2-12.9-13.4l-66.6-22.4l-22.4-7.3l-12.3-3.9
		c-1.7-0.6-9-3.4-19.6-6.2l-6.2-1.7c-2.2-0.6-5,0.6-6.2,2.8l-33,90.7c-1.7,5-9.5,5-11.2,0l-33-90.7c-0.6-2.2-2.8-3.4-4.5-3.4
		c-0.6,0-17.4,5-17.4,5C13.4,142.8,0,161.3,0,182.6v95.8c0,1.1,0,1.7,0.6,2.8l34.7,52.6V411h117l0-77.3V180.3l29.1,9.5l20.7,6.7
		l49.8,16.8c2.2,0.6,4.5,1.1,6.7,1.1c9,0,16.8-5.6,20.2-14.6c0.6-1.7,0.6-2.8,0.6-4.5L406,137.2
		C408.8,136.1,409.4,133.3,408.2,131.6L408.2,131.6z"/>
	<path d="M149.5,54.9C149.5,24.6,124.9,0,94.6,0S39.8,24.6,39.8,54.9s24.6,54.9,54.9,54.9C124.9,109.8,149.5,85.1,149.5,54.9z"/>
	<path d="M107.5,134.4c-1.1-1.7-3.4-2.2-5.6-2.2H86.8c-2.2,0-3.9,0.6-5.6,2.2c-2.2,2.2-2.2,5.6-1.1,8.4l7.8,12.3L84,187l7.3,19.6
		c0.6,2.2,3.4,2.2,4.5,0L103,187l-3.9-31.9l7.8-12.3C109.8,140,109.8,137.2,107.5,134.4L107.5,134.4z"/>
</g>
</svg>
