<?xml version="1.0" encoding="utf-8"?>
<!-- Generator: Adobe Illustrator 25.2.1, SVG Export Plug-In . SVG Version: 6.00 Build 0)  -->
<svg version="1.1" id="Layer_1" xmlns="http://www.w3.org/2000/svg" xmlns:xlink="http://www.w3.org/1999/xlink" x="0px" y="0px"
	 viewBox="0 0 55.88 54.57" style="enable-background:new 0 0 55.88 54.57;" xml:space="preserve">
<style type="text/css">
	.st0{fill:#FFFFFF;}
</style>
<g>
	<path class="st0" d="M36.97,11.37c-0.18,4.61-1.13,8.95-3.24,12.97c-0.63,1.2-1.51,2.3-2.39,3.35c-2.9,3.46-7.41,3.15-10.26,0.94
		c-2.16-1.67-3.72-3.78-4.74-6.32c-1.61-4.04-2.58-8.19-2.25-12.56c0.11-1.51,0.45-2.97,1.11-4.34c1.19-2.48,3.13-4.07,5.77-4.79
		c3.46-0.94,6.87-0.84,10.17,0.65c3.46,1.56,5.23,4.35,5.67,8.05C36.9,10.02,36.93,10.74,36.97,11.37z M34.98,11.3
		c-0.05-0.59-0.07-1.33-0.17-2.06c-0.4-2.85-1.81-4.98-4.48-6.18c-2.82-1.27-5.74-1.35-8.69-0.59c-2.71,0.7-4.44,2.47-5.15,5.17
		c-0.27,1.04-0.46,2.12-0.48,3.19c-0.07,4.44,1.02,8.63,3.06,12.57c0.82,1.58,2.07,2.83,3.51,3.87c1.89,1.35,5.06,1.69,7.12-0.73
		c0.89-1.04,1.77-2.14,2.39-3.34C33.97,19.51,34.84,15.57,34.98,11.3z"/>
	<path class="st0" d="M44.62,54.57c-6.24-0.01-11.26-5.03-11.25-11.27c0.02-6.24,5.05-11.26,11.28-11.25
		c6.2,0.01,11.26,5.1,11.24,11.31C55.86,49.55,50.81,54.57,44.62,54.57z M44.61,34.04c-5.13,0-9.3,4.18-9.29,9.29
		c0.01,5.1,4.23,9.3,9.33,9.28c5.09-0.03,9.23-4.19,9.24-9.28C53.89,38.19,49.75,34.04,44.61,34.04z"/>
	<path class="st0" d="M25.65,42.39c0.23-0.36,0.34-0.6,0.52-0.78c2.14-2.23,4.27-4.47,6.44-6.67c0.24-0.25,0.63-0.47,0.96-0.5
		c0.72-0.06,1.17,0.74,0.83,1.38c-0.09,0.16-0.22,0.31-0.35,0.45c-2.49,2.59-4.99,5.19-7.49,7.78c-0.74,0.76-1.18,0.77-1.91,0
		c-2.28-2.39-4.56-4.78-6.82-7.19c-0.27-0.28-0.51-0.36-0.88-0.27c-3.94,0.99-7.87,1.96-11.81,2.93c-0.7,0.17-1.13,0.64-1.45,1.23
		c-0.75,1.36-1.11,2.84-1.29,4.35c-0.2,1.74-0.29,3.5-0.4,5.25c-0.05,0.83-0.37,1.26-1.02,1.25C0.35,51.6-0.02,51.17,0,50.39
		c0.06-3.05,0.25-6.09,1.26-9.01c0.25-0.71,0.6-1.4,0.99-2.05c0.56-0.92,1.4-1.47,2.47-1.73c4.13-1,8.25-2.03,12.36-3.07
		c0.69-0.17,1.19-0.07,1.7,0.47c2.06,2.22,4.16,4.4,6.25,6.59C25.21,41.78,25.35,41.99,25.65,42.39z"/>
	<path class="st0" d="M43.78,45.01c1.49-1.5,2.98-3,4.48-4.49c0.16-0.16,0.34-0.35,0.54-0.43c0.45-0.17,0.89-0.1,1.19,0.32
		c0.29,0.41,0.27,0.85-0.08,1.22c-0.58,0.62-1.19,1.21-1.79,1.81c-1.17,1.17-2.33,2.34-3.5,3.5c-0.68,0.68-1.17,0.68-1.83,0.01
		c-1.07-1.09-2.13-2.18-3.19-3.28c-0.55-0.57-0.6-1.11-0.15-1.56c0.43-0.43,1.02-0.38,1.56,0.16c0.88,0.89,1.75,1.78,2.62,2.67
		C43.64,44.96,43.67,44.96,43.78,45.01z"/>
</g>
</svg>
